<?xml version="1.0" encoding="utf-8"?>
<!-- Generator: Adobe Illustrator 21.1.0, SVG Export Plug-In . SVG Version: 6.00 Build 0)  -->
<svg version="1.1" id="Layer_1" xmlns="http://www.w3.org/2000/svg" xmlns:xlink="http://www.w3.org/1999/xlink" x="0px" y="0px"
	 viewBox="0 0 25.6 25.6" style="enable-background:new 0 0 25.6 25.6;" xml:space="preserve">
<style type="text/css">
	.st0{fill:url(#SVGID_1_);}
	.st1{fill:#CBCBCB;}
	.st2{filter:url(#Adobe_OpacityMaskFilter);}
	.st3{fill:url(#SVGID_3_);}
	.st4{mask:url(#SVGID_2_);}
	.st5{fill:none;stroke:#323232;stroke-width:0.5;stroke-miterlimit:10;}
</style>
<title>Email Resume Icon</title>
<linearGradient id="SVGID_1_" gradientUnits="userSpaceOnUse" x1="-8.640200e-10" y1="25.64" x2="25.64" y2="8.615118e-10">
	<stop  offset="0" style="stop-color:#F7F7F7"/>
	<stop  offset="1" style="stop-color:#323232"/>
</linearGradient>
<rect class="st0" width="25.6" height="25.6"/>
<path class="st1" d="M7.4,8.1H18c1,0,1.8,0.8,1.8,1.8v6.4c0,1-0.8,1.8-1.8,1.8H7.4c-1,0-1.8-0.8-1.8-1.8V9.9
	C5.7,8.9,6.5,8.1,7.4,8.1z"/>
<defs>
	<filter id="Adobe_OpacityMaskFilter" filterUnits="userSpaceOnUse" x="4.4" y="7.3" width="16.8" height="10.8">
		
			<feColorMatrix  type="matrix" values="-1 0 0 0 1  0 -1 0 0 1  0 0 -1 0 1  0 0 0 1 0" color-interpolation-filters="sRGB" result="source"/>
	</filter>
</defs>
<mask maskUnits="userSpaceOnUse" x="4.4" y="7.3" width="16.8" height="10.8" id="SVGID_2_">
	<g class="st2">
		<linearGradient id="SVGID_3_" gradientUnits="userSpaceOnUse" x1="-8.631105e-10" y1="25.64" x2="25.64" y2="8.639738e-10">
			<stop  offset="0" style="stop-color:#F7F7F7"/>
			<stop  offset="1" style="stop-color:#323232"/>
		</linearGradient>
		<rect y="0" class="st3" width="25.6" height="25.6"/>
	</g>
</mask>
<g class="st4">
	<line class="st5" x1="19.9" y1="17.9" x2="13.7" y2="13.8"/>
	<line class="st5" x1="11.8" y1="13.8" x2="5.8" y2="17.9"/>
	<path class="st5" d="M12.4,14.5c0.2,0.2,0.5,0.2,0.6,0l7.7-6.7c0.2-0.2,0.1-0.3-0.1-0.3H4.8c-0.2,0-0.3,0.1-0.1,0.3L12.4,14.5z"/>
</g>
</svg>
