<?xml version="1.0" encoding="utf-8"?>
<!-- Generator: Adobe Illustrator 21.1.0, SVG Export Plug-In . SVG Version: 6.00 Build 0)  -->
<svg version="1.1" id="Layer_1" xmlns="http://www.w3.org/2000/svg" xmlns:xlink="http://www.w3.org/1999/xlink" x="0px" y="0px"
	 viewBox="0 0 25.6 25.6" style="enable-background:new 0 0 25.6 25.6;" xml:space="preserve">
<style type="text/css">
	.st0{fill:#CBCBCB;}
	.st1{fill:#323232;}
	.st2{fill:none;stroke:#323232;stroke-width:0.5;stroke-miterlimit:10;}
</style>
<g>
	<rect class="st0" width="25.6" height="25.6"/>
</g>
<title>Email Resume Icon</title>
<rect class="st1" width="25.6" height="25.6"/>
<path class="st0" d="M7.4,8.1H18c1,0,1.8,0.8,1.8,1.8v6.4c0,1-0.8,1.8-1.8,1.8H7.4c-1,0-1.8-0.8-1.8-1.8V9.9
	C5.7,8.9,6.5,8.1,7.4,8.1z"/>
<g>
	<line class="st2" x1="19.9" y1="17.9" x2="13.7" y2="13.8"/>
	<line class="st2" x1="11.8" y1="13.8" x2="5.8" y2="17.9"/>
	<path class="st2" d="M12.4,14.5c0.2,0.2,0.5,0.2,0.6,0l7.7-6.7c0.2-0.2,0.1-0.3-0.1-0.3H4.8c-0.2,0-0.3,0.1-0.1,0.3L12.4,14.5z"/>
</g>
</svg>
