<?xml version="1.0" encoding="utf-8"?>
<!-- Generator: Adobe Illustrator 21.1.0, SVG Export Plug-In . SVG Version: 6.00 Build 0)  -->
<svg version="1.1" id="Layer_1" xmlns="http://www.w3.org/2000/svg" xmlns:xlink="http://www.w3.org/1999/xlink" x="0px" y="0px"
	 viewBox="0 0 25.6 26.1" style="enable-background:new 0 0 25.6 26.1;" xml:space="preserve">
<style type="text/css">
	.st0{fill:#CBCBCB;}
	.st1{fill:#3A3737;}
</style>
<rect y="0.2" class="st0" width="25.6" height="25.6"/>
<path class="st1" d="M10.6,19.7c-3.1,0.7-3.7-1.5-3.7-1.5c-0.2-0.7-0.6-1.2-1.2-1.6C4.6,16,5.7,16,5.7,16c0.7,0.1,1.3,0.5,1.7,1.1
	c0.6,1.1,2.1,1.5,3.2,0.9c0.1-0.6,0.3-1.1,0.7-1.5c-2.5-0.3-5.1-1.2-5.1-5.4c0-1.1,0.4-2.1,1.2-2.9c-0.3-0.9-0.3-2,0.1-2.9
	c0,0,0.9-0.3,3,1.1c1.8-0.5,3.7-0.5,5.5,0c0.8-0.6,1.8-1,2.8-1.1c0.1,0,0.2,0,0.3,0c0.4,0.9,0.4,1.9,0.1,2.9
	c0.8,0.8,1.2,1.9,1.2,2.9c0,4.2-2.6,5.1-5.1,5.4c0.5,0.5,0.8,1.3,0.7,2c0,1.5,0,2.6,0,3c0,0.2,0.1,0.3,0.2,0.4v0.1l-0.3,0.1
	l-0.4,0.1l-0.3,0.1l-0.3,0.1l-0.5,0.1l-0.6,0.1l-0.6,0h-0.5l-0.6-0.1l-0.5-0.1l-0.4-0.1l-0.4-0.1l-0.3-0.1l-0.4-0.1v-0.1
	c0.3,0,0.4-0.3,0.4-0.5C10.6,21.3,10.6,20.6,10.6,19.7z"/>
</svg>
