<svg id="Layer_1" data-name="Layer 1" xmlns="http://www.w3.org/2000/svg" viewBox="0 0 25.64 26.14"><defs><style>.cls-1{fill:#F7F5E6;}.cls-2{fill:#333A56;}.cls-3{fill:none;stroke:#333A56;stroke-miterlimit:10;stroke-width:0.25px;}</style></defs><title>GitHub Resume Icon</title><circle class="cls-1" cx="12.82" cy="12.82" r="12.82"/><path class="cls-2" d="M10.34,22.87c-3.64.78-4.41-1.74-4.41-1.74a3.46,3.46,0,0,0-1.46-1.89c-1.19-.8.09-.78.09-.78a2.74,2.74,0,0,1,2,1.33,2.81,2.81,0,0,0,3.81,1.07,2.81,2.81,0,0,1,.83-1.73c-2.91-.32-6-1.43-6-6.38A5,5,0,0,1,6.59,9.28a4.63,4.63,0,0,1,.13-3.42s1.1-.35,3.61,1.32a12.72,12.72,0,0,1,6.56,0,6.33,6.33,0,0,1,3.3-1.35,1.16,1.16,0,0,1,.3,0,4.63,4.63,0,0,1,.13,3.42A4.94,4.94,0,0,1,22,12.75c0,5-3.06,6.05-6,6.37a3.08,3.08,0,0,1,.89,2.4c0,1.73,0,3.12,0,3.54a.66.66,0,0,0,.24.53v.12l-.31.13-.47.17-.39.13-.33.09-.58.13-.75.1-.71.05H13l-.75-.06-.63-.1-.42-.09-.46-.13L10.37,26l-.46-.17,0-.16a.6.6,0,0,0,.5-.63C10.36,24.76,10.35,23.94,10.34,22.87Z" transform="translate(-0.5 -0.5)"/><polyline class="cls-3" points="9.41 25.35 9.87 25.52 10.21 25.63 10.67 25.76 11.09 25.85 11.72 25.95 12.47 26.01 13.05 26.01 13.76 25.96 14.51 25.86 15.09 25.73 15.42 25.64 15.81 25.51 16.28 25.34 16.59 25.21"/></svg>