<?xml version="1.0" encoding="utf-8"?>
<!-- Generator: Adobe Illustrator 21.1.0, SVG Export Plug-In . SVG Version: 6.00 Build 0)  -->
<svg version="1.1" id="Layer_1" xmlns="http://www.w3.org/2000/svg" xmlns:xlink="http://www.w3.org/1999/xlink" x="0px" y="0px"
	 viewBox="0 0 25.6 25.6" style="enable-background:new 0 0 25.6 25.6;" xml:space="preserve">
<style type="text/css">
	.st0{fill:#CBCBCB;}
	.st1{fill:#3A3737;}
	.st2{fill:none;stroke:#3A3737;stroke-width:1.4;stroke-miterlimit:10;}
</style>
<rect class="st0" width="25.6" height="25.6"/>
<title>LinkedIn Resume Icon</title>
<path class="st1" d="M14,12.1c0.5-0.8,1.4-1.4,2.4-1.3c2.6,0,3,1.7,3,3.9v4.5h-2.5v-4c0-0.9,0-2.2-1.3-2.2c-0.3,0-0.6,0-0.8,0.2
	L14,12.1z"/>
<path class="st1" d="M14.8,13.2c-0.6,0.3-0.7,1.1-0.7,1.9v4h-2.5V11H14v1.1l0,0L14.8,13.2z"/>
<rect x="7.4" y="11" class="st1" width="2.5" height="8.1"/>
<circle class="st1" cx="8.7" cy="8.4" r="1.5"/>
<line class="st2" x1="13.8" y1="13.1" x2="15.5" y2="11.9"/>
</svg>
