<svg id="Layer_1" data-name="Layer 1" xmlns="http://www.w3.org/2000/svg" viewBox="0 0 428.4 221.59"><defs><style>.cls-1{fill:#db324d;}.cls-2{fill:#ef3c5f;}.cls-3{fill:#ff9cb8;}.cls-4{fill:#ff7697;}.cls-5{fill:#fcdee4;}</style></defs><title>Reach&amp;amp;Relief</title><path class="cls-1" d="M464.2,366.74H435.81V271.45H409c-25.78,1-37.53,12.4-44.06,42.75-6.2,27.41-11.1,46.34-14.69,52.54H320.94c4.57-8.48,9.79-29.7,17-60.37,5.22-22.84,15.34-38.51,32.31-44.38v-1c-23.17-7.83-41.44-27.09-41.44-56.13,0-17,6.2-32,17.3-41.77,13.71-12.4,33.29-17.95,63.64-17.95,19.58,0,40.14,1.63,54.5,4.57ZM435.81,169.63c-4.57-1.31-14.36-2.61-28.07-2.61-30,.33-50.58,12.73-50.58,41.12,0,25.13,19.25,41.77,49.6,41.77h29Z" transform="translate(-35.8 -145.15)"/><rect class="cls-1" x="224.89" y="311.37" width="44.98" height="44.98" transform="translate(272.73 -222.29) rotate(45)"/><rect class="cls-2" x="189.93" y="276.4" width="44.98" height="44.98" transform="translate(237.76 -207.81) rotate(45)"/><rect class="cls-1" x="259.86" y="276.4" width="44.98" height="44.98" transform="translate(258.24 -257.26) rotate(45)"/><rect class="cls-2" x="224.84" y="241.49" width="44.98" height="44.98" transform="translate(223.3 -242.73) rotate(45)"/><rect class="cls-3" x="189.93" y="206.57" width="44.98" height="44.98" transform="translate(188.38 -228.26) rotate(45)"/><rect class="cls-4" x="155.01" y="241.49" width="44.98" height="44.98" transform="translate(202.85 -193.35) rotate(45)"/><rect class="cls-4" x="259.86" y="206.57" width="44.98" height="44.98" transform="translate(208.87 -277.71) rotate(45)"/><rect class="cls-2" x="294.77" y="241.49" width="44.98" height="44.98" transform="translate(243.78 -292.17) rotate(45)"/><rect class="cls-5" x="155.11" y="171.66" width="44.98" height="44.98" transform="translate(153.5 -213.87) rotate(45)"/><rect class="cls-3" x="294.77" y="171.66" width="44.98" height="44.98" transform="translate(194.4 -312.63) rotate(45)"/><rect class="cls-5" x="120.1" y="206.57" width="44.98" height="44.98" transform="translate(167.93 -178.89) rotate(45)"/><rect class="cls-4" x="329.69" y="206.57" width="44.98" height="44.98" transform="translate(229.32 -327.09) rotate(45)"/><path class="cls-1" d="M35.8,149.72c14.36-2.94,34.92-4.57,54.5-4.57,30.35,0,49.93,5.55,63.64,17.95,11.1,9.79,17.3,24.8,17.3,41.77,0,29-18.27,48.3-41.45,56.13v1c17,5.87,27.09,21.54,32.31,44.38,7.18,30.68,12.4,51.89,17,60.37H149.69c-3.59-6.2-8.48-25.13-14.69-52.54-6.53-30.35-18.28-41.77-44.06-42.75H64.19v95.29H35.8ZM64.19,249.91h29c30.35,0,49.6-16.64,49.6-41.77,0-28.39-20.56-40.79-50.58-41.12-13.71,0-23.5,1.31-28.07,2.61Z" transform="translate(-35.8 -145.15)"/></svg>