<?xml version="1.0" encoding="utf-8"?>
<!-- Generator: Adobe Illustrator 21.1.0, SVG Export Plug-In . SVG Version: 6.00 Build 0)  -->
<svg version="1.1" id="Layer_1" xmlns="http://www.w3.org/2000/svg" xmlns:xlink="http://www.w3.org/1999/xlink" x="0px" y="0px"
	 viewBox="0 0 25.6 25.6" style="enable-background:new 0 0 25.6 25.6;" xml:space="preserve">
<style type="text/css">
	.st0{fill:#F7F5E6;}
	.st1{fill:#333A56;}
</style>
<title>LinkedIn Resume Icon</title>
<circle class="st0" cx="12.8" cy="12.8" r="12.8"/>
<path class="st1" d="M7.8,17.4h-1V9.4c0.3-0.2,0.6-0.4,1-0.6V17.4z M10.8,17.4h1V8.2c-0.2,0.3-0.4,0.5-0.6,0.9l-0.4-0.2V17.4z
	 M8.8,17.4h1V8.6c-0.5-0.1-0.6-0.1-1,0V17.4z M4.8,17.4h1v-7c-0.3,0.5-0.6,1-0.7,1.5l-0.3-0.2V17.4z M1.8,12.2c-0.6,0.5-1,1.4-1,2.3
	s0.4,1.7,1,2.3V12.2z M20.7,11.5c-0.2-2.8-2.4-5.1-5.1-5.1c-1,0-2,0.3-2.8,0.9v10.1h9.1c1.6,0,2.9-1.4,2.9-3.1
	C24.8,12.1,22.7,10.6,20.7,11.5z M3.8,11.5c-0.3,0-0.5,0-1,0.1v5.7c0.4,0.1,0.6,0.1,1,0.1V11.5z"/>
</svg>
