<svg id="Layer_1" data-name="Layer 1" xmlns="http://www.w3.org/2000/svg" viewBox="0 0 15.22 17.43"><defs><style>.cls-1{fill:#323232;}</style></defs><title>git-resource</title><path class="cls-1" d="M5.32,14.43c-3.1.6-3.7-1.5-3.7-1.5a2.76,2.76,0,0,0-1.2-1.6c-1-.7.1-.7.1-.7a2.45,2.45,0,0,1,1.7,1.1,2.41,2.41,0,0,0,3.2.9,2.63,2.63,0,0,1,.7-1.5c-2.5-.3-5.1-1.2-5.1-5.4a4,4,0,0,1,1.2-2.9,3.41,3.41,0,0,1,0-2.8s.9-.3,3,1.1a10.27,10.27,0,0,1,5.5,0A5.7,5.7,0,0,1,13.52,0h.3a4.16,4.16,0,0,1,.2,2.9,4.18,4.18,0,0,1,1.2,2.9c0,4.2-2.6,5.1-5.1,5.4a2.49,2.49,0,0,1,.7,2v3a.52.52,0,0,0,.2.4v.1l-.2.2-.4.1-.3.1-.3.1-.5.1-.6.1H7.62l-.6-.1-.5-.1-.4-.1-.4-.1-.3-.1h-.5v-.1c.3,0,.4-.3.4-.5Z" transform="translate(0 0)"/></svg>