<svg id="Layer_1" data-name="Layer 1" xmlns="http://www.w3.org/2000/svg" viewBox="0 0 25.6 25.6"><defs><style>.cls-1{fill:#323232;}.cls-2{fill:#cbcbcb;}</style></defs><title>sound-resource</title><rect class="cls-1" width="25.6" height="25.6"/><path class="cls-2" d="M8.51,17.37H7.69V10.76a7.27,7.27,0,0,1,.83-.5Zm2.48,0h.83V9.77a5.8,5.8,0,0,0-.5.74L11,10.35Zm-1.65,0h.83V10.1a1.4,1.4,0,0,0-.83,0ZM6,17.37h.83V11.59a4.19,4.19,0,0,0-.58,1.24L6,12.66Zm-2.48-4.3A2.55,2.55,0,0,0,2.73,15a2.69,2.69,0,0,0,.83,1.9Zm15.62-.58A4.4,4.4,0,0,0,15,8.28,3.87,3.87,0,0,0,12.65,9v8.35h7.52a2.49,2.49,0,0,0,2.4-2.56A2.41,2.41,0,0,0,19.18,12.5Zm-14,0a3.42,3.42,0,0,0-.83.08v4.71a2.81,2.81,0,0,0,.83.08Z"/></svg>