<svg id="Layer_1" data-name="Layer 1" xmlns="http://www.w3.org/2000/svg" viewBox="0 0 454.52 57.69"><defs><style>.cls-1{fill:#38cc70;}</style></defs><title>Autowise-Logo</title><path class="cls-1" d="M65,261.32H39.08l-4.94,12H20.91l24.86-55.78H58.52l24.94,55.78H69.91Zm-4.06-9.8-8.84-21.35-8.84,21.35Z" transform="translate(-20.91 -216.53)"/><path class="cls-1" d="M87.6,248.73V217.49h12.91v30.76c0,10.6,4.62,15,12.43,15s12.43-4.38,12.43-15V217.49h12.75v31.23c0,16.41-9.4,25.5-25.26,25.5S87.6,265.14,87.6,248.73Z" transform="translate(-20.91 -216.53)"/><path class="cls-1" d="M161.47,228H143.62V217.49h48.61V228H174.38v45.26H161.47Z" transform="translate(-20.91 -216.53)"/><path class="cls-1" d="M194.86,245.38c0-16.57,12.91-28.84,30.52-28.84s30.52,12.19,30.52,28.84-13,28.85-30.52,28.85S194.86,262,194.86,245.38Zm48,0c0-10.6-7.49-17.85-17.45-17.85s-17.45,7.25-17.45,17.85,7.49,17.85,17.45,17.85S242.83,256,242.83,245.38Z" transform="translate(-20.91 -216.53)"/><path class="cls-1" d="M348.09,217.49l-18.25,55.78H316L303.71,235.5,291,273.27H277.25l-18.33-55.78h13.39l12.59,39.2L298,217.49h12L322.75,257l13-39.52Z" transform="translate(-20.91 -216.53)"/><path class="cls-1" d="M355.26,217.49h12.91v55.78H355.26Z" transform="translate(-20.91 -216.53)"/><path class="cls-1" d="M377,267.77,381.4,258a32.8,32.8,0,0,0,18.41,5.82c7.65,0,10.76-2.55,10.76-6,0-10.44-32.43-3.27-32.43-24,0-9.48,7.65-17.37,23.51-17.37,7,0,14.18,1.67,19.36,4.94l-4,9.8a31.5,31.5,0,0,0-15.46-4.38c-7.65,0-10.6,2.87-10.6,6.37,0,10.28,32.43,3.19,32.43,23.67,0,9.32-7.73,17.29-23.67,17.29C390.88,274.22,382,271.59,377,267.77Z" transform="translate(-20.91 -216.53)"/><path class="cls-1" d="M475.42,262.91v10.36H432.24V217.49h42.15v10.36H445.06V240H471v10h-25.9v12.91Z" transform="translate(-20.91 -216.53)"/></svg>