<svg id="Layer_1" data-name="Layer 1" xmlns="http://www.w3.org/2000/svg" xmlns:xlink="http://www.w3.org/1999/xlink" viewBox="0 0 14.2 10"><defs><style>.cls-1{fill:none;stroke:#c10000;stroke-miterlimit:10;stroke-width:0.5px;}.cls-2{mask:url(#mask);}.cls-3{fill:#cbcbcb;}.cls-4{filter:url(#luminosity-noclip);}</style><filter id="luminosity-noclip" x="-1.26" y="-0.85" width="16.72" height="10.86" filterUnits="userSpaceOnUse" color-interpolation-filters="sRGB"><feFlood flood-color="#fff" result="bg"/><feBlend in="SourceGraphic" in2="bg"/></filter><mask id="mask" x="-1.26" y="-0.85" width="16.72" height="10.86" maskUnits="userSpaceOnUse"><g class="cls-4"><line class="cls-1" x1="14.3" y1="9.8" x2="8.1" y2="5.7"/><line class="cls-1" x1="6.2" y1="5.7" x2="0.2" y2="9.8"/><path class="cls-1" d="M6.8,6.4c.2.2.5.2.6,0L15.1-.3c.2-.2.1-.3-.1-.3H-.8c-.2,0-.3.1-.1.3Z"/></g></mask></defs><title>email-icon-resource</title><g class="cls-2"><path class="cls-3" d="M1.8,0H12.4a1.79,1.79,0,0,1,1.8,1.8V8.2A1.79,1.79,0,0,1,12.4,10H1.8A1.79,1.79,0,0,1,0,8.2V1.8A1.93,1.93,0,0,1,1.8,0Z"/></g></svg>