<svg id="Layer_1" data-name="Layer 1" xmlns="http://www.w3.org/2000/svg" xmlns:xlink="http://www.w3.org/1999/xlink" viewBox="0 0 500 500"><defs><style>.cls-1{fill:url(#linear-gradient);}.cls-2{fill:url(#linear-gradient-2);}.cls-3{fill:url(#linear-gradient-3);}.cls-4{fill:url(#linear-gradient-4);}</style><linearGradient id="linear-gradient" x1="250" y1="81.77" x2="250" y2="395.83" gradientUnits="userSpaceOnUse"><stop offset="0" stop-color="#f3f3f3"/><stop offset="0.43" stop-color="#f3f1f1"/><stop offset="0.58" stop-color="#f3ebea"/><stop offset="0.69" stop-color="#f3e1df"/><stop offset="0.78" stop-color="#f4d2ce"/><stop offset="0.86" stop-color="#f4beb8"/><stop offset="0.92" stop-color="#f4a69c"/><stop offset="0.98" stop-color="#f58a7d"/><stop offset="1" stop-color="#f58173"/><stop offset="1" stop-color="#f66957"/></linearGradient><linearGradient id="linear-gradient-2" x1="250" y1="395.83" x2="250" y2="417.27" gradientUnits="userSpaceOnUse"><stop offset="0" stop-color="#f3f3f3"/><stop offset="0.41" stop-color="#f3f1f1"/><stop offset="0.56" stop-color="#f3ebea"/><stop offset="0.67" stop-color="#f3e1df"/><stop offset="0.75" stop-color="#f4d2ce"/><stop offset="0.82" stop-color="#f4beb8"/><stop offset="0.89" stop-color="#f5a69c"/><stop offset="0.95" stop-color="#f58b7d"/><stop offset="1" stop-color="#f66b59"/><stop offset="1" stop-color="#f66957"/></linearGradient><linearGradient id="linear-gradient-3" x1="239.16" y1="111.86" x2="239.16" y2="238.21" gradientTransform="translate(10.95 28.57)" gradientUnits="userSpaceOnUse"><stop offset="0" stop-color="#f3f3f3"/><stop offset="0.34" stop-color="#f4c3bd"/><stop offset="1" stop-color="#f66957"/></linearGradient><linearGradient id="linear-gradient-4" x1="250.02" y1="395.83" x2="250.02" y2="417.23" gradientUnits="userSpaceOnUse"><stop offset="0" stop-color="#424b54"/><stop offset="0.44" stop-color="#404952"/><stop offset="0.66" stop-color="#39424a"/><stop offset="0.83" stop-color="#2e353d"/><stop offset="0.98" stop-color="#1d232b"/><stop offset="1" stop-color="#1a2027"/></linearGradient></defs><title>Miya-Logo</title><path class="cls-1" d="M417.75,249.52A167.75,167.75,0,1,0,167.91,395.83H332.09A167.69,167.69,0,0,0,417.75,249.52Z"/><path class="cls-2" d="M250,417.27a167,167,0,0,0,82.09-21.44H167.91A167,167,0,0,0,250,417.27Z"/><path class="cls-3" d="M358.84,266.4a734.23,734.23,0,0,0-217.67,0c-25.69,4-42.37-23.22-44.87-45.28L95,209.82c-2.44-23.61,8.94-56.9,36.23-60.49a797.16,797.16,0,0,1,237.57,0c26.5,4.9,39.66,35.91,36.23,60.49l-1.31,11.3C401.21,243.19,384.53,270.36,358.84,266.4Z"/><path class="cls-4" d="M250,417.23a167,167,0,0,0,82-21.4H168A167,167,0,0,0,250,417.23Z"/></svg>