<svg id="Layer_1" data-name="Layer 1" xmlns="http://www.w3.org/2000/svg" viewBox="0 0 19.84 9.09"><defs><style>.cls-1{fill:#cbcbcb;}</style></defs><title>sound-resource</title><path class="cls-1" d="M5.78,9.09H5V2.48A7.27,7.27,0,0,1,5.79,2Zm2.48,0h.83V1.49a5.8,5.8,0,0,0-.5.74l-.32-.16Zm-1.65,0h.83V1.82a1.4,1.4,0,0,0-.83,0Zm-3.34,0H4.1V3.31a4.19,4.19,0,0,0-.58,1.24l-.25-.17ZM.79,4.79A2.55,2.55,0,0,0,0,6.72a2.69,2.69,0,0,0,.83,1.9Zm15.62-.58A4.4,4.4,0,0,0,12.27,0,3.87,3.87,0,0,0,9.92.72V9.07h7.52a2.49,2.49,0,0,0,2.4-2.56,2.41,2.41,0,0,0-3.39-2.29Zm-14,0a3.42,3.42,0,0,0-.83.08V9a2.81,2.81,0,0,0,.83.08Z" transform="translate(0)"/></svg>