<svg id="Layer_1" data-name="Layer 1" xmlns="http://www.w3.org/2000/svg" xmlns:xlink="http://www.w3.org/1999/xlink" viewBox="0 0 508.64 508.64"><defs><style>.cls-1{fill:none;}.cls-2{mask:url(#mask);}.cls-3{fill:#a4b0f5;}.cls-4{fill:#8399b1;}.cls-5{fill:#c8d2d8;}.cls-6{fill:#a0b3ca;}.cls-7{clip-path:url(#clip-path);}.cls-8{clip-path:url(#clip-path-2);}.cls-9{clip-path:url(#clip-path-3);}.cls-10{clip-path:url(#clip-path-4);}</style><mask id="mask" x="0" y="-8437.68" width="508.64" height="32766" maskUnits="userSpaceOnUse"/><clipPath id="clip-path" transform="translate(4.32 4.32)"><path class="cls-1" d="M351.51,105l.66,1.66.67,1.6.68,1.55.71,1.49.37.73.38.72.38.71.4.69.83,1.36.22.33.22.33.45.66.46.65.49.63,1,1.23.23.3.12.15.12.15.25.3.27.29.14.14.15.14.3.28.32.28.16.14.17.14.35.26.18.13.19.13.38.25.41.25.21.12.22.12.45.23.23.11.24.11.49.21,1,.38.56.18.29.08.29.07.29.06.15,0,.15,0H368l-7.51-17.44h0v0l-.06.13,0,.11v.16h0l9-1.32,2.14-.35,2.11-.38,1.06-.2,1-.22,1-.23.52-.12.5-.13.25-.06.13,0h0l1.35,4.73h0l.06,0,.44-.39.88-.79,1.77-1.57,3.55-3.12L393.41,97l7.18-6.14,7.21-6.22,3.59-3.15L415,78.26,418.55,75l3.57-3.29H422l-.07,0-.07,0-.07,0-.07.05-.13.12-.13.12-.07.05-.07,0-.07,0-.07,0H421l-1.17.17-2.33.34-4.67.68-9.33,1.35-9.33,1.35-9.42,1.41-9.48,1.44-2.37.36-.3,0h0l-.63.06-1.19.1-1.63.16-1,.12-1.12.16-.62.1-.66.12-.72.15-.75.17-.85.22L363,81l-.46.14-1,.32-.51.18-.57.22-.56.23-.59.25-.75.36-.74.38-.35.19-.33.19-.65.38-.6.38-.54.37-.53.38-.44.33-.44.34-.38.3-.66.56-.52.46-.81.74.27-.23.33-.26.44-.32.26-.16.3-.21.64-.47.73-.54.41-.29.42-.29.22-.14.11-.06,0,0,.09-.07.1-.05.1,0,.1,0h.42l.1,0,.11,0,.11.06.05,0,0,0,.1.09.1.1.1.1.09.1.17.21.08.11.07.11.14.22.07.11L358,86l.11.23,0,.11,0,.11.08.23,0,.06,0,.06,0,.12,0,.24v.25l0,.25v.76l0,.26v.13l0,.13,0,.26,0,.13,0,.13-.07.26-.17.53-.21.53-.33,1.07-.18.54-.09.27-.1.27-.42,1.1-.22.56-.24.56-.5,1.14-.54,1.16L354,99.86l-1.23,2.49Z"/></clipPath><clipPath id="clip-path-2" transform="translate(4.32 4.32)"><path class="cls-1" d="M365.74,129.61l-.48-1.67-.44-1.63-.41-1.59-.39-1.56-.7-3-.63-2.95-1.16-5.64-.54-2.69-.28-1.31-.07-.33,0-.15v-.12h0l7.69,17.3h-.06l-.47.08-.2,0H367l.76-.37.78-.4.8-.43.86-.48.62-.34.61-.35.3-.18.28-.18.55-.37.54-.38.25-.19.24-.18.47-.38.46-.38.77-.72.19-.18.17-.17.3-.33.3-.33.14-.16.12-.15.45-.59.33-.5.08-.12,0-.06,0-.05.1-.2.1-.2,0,0v0l0-.07.09-.3v0h0v-.24h0l-.07,0-.07,0h-.35l-.37.08-.09,0h-.05l-.06,0-.25.08-.25.07-.06,0-.07,0-.15.05-.31.09-.31.08-.36.1-.36.09-.18,0h-.91l-.15,0-.15,0-.07,0h-.06l-.18-.11-.09-.06,0,0h0l0,0-.09-.14,0-.07v0h0v0l0-.16v-.1h0v0l0-.17,0-.08v0h0l0,0,.09-.17,0-.09,0,0,0,0L373,114l.07-.09,0,0,0,0,.17-.18.17-.18.2-.18.2-.18.23-.18.23-.18.26-.18.26-.18.29-.19.29-.19.32-.19.32-.19.36-.2.36-.2.4-.22.2-.11.1-.06,0,0,0,0,.23-.2.45-.39.22-.2.11-.1.06,0,0,0h0l-1.43-5.24.5-.12,1-.25.51-.13.51-.14,2-.61.5-.17.49-.18,1-.37.51-.19.49-.21,1-.44.5-.23.25-.12.24-.12,1-.51,1-.54.25-.14.23-.15.47-.3.95-.62.48-.32.12-.08.11-.09.23-.17.45-.35.23-.18.06,0,0,0h0l0,0,.11-.1.89-.78,7.15-6.18,7.26-6.19,3.66-3.07,3.7-3.06,3.75-3,3.81-3v.07l0,.07,0,.06-.05.06-.06.06-.06.06-.14.11-.14.11-.13.12-.06.06-.05.06,0,.06,0,.07-.1.28-.09.28-.17.56-.68,2.26-1.37,4.51-2.74,9-2.74,9-.68,2.26-.34,1.13-.55,1.67-.62,1.78-.08.22-.08.22-.17.43-.35.85-.72,1.7-.19.42-.2.41-.4.81-.81,1.62-.21.4-.22.38-.44.77-.88,1.53-.22.38-.23.36-.46.72-.93,1.43-.24.35-.24.34-.48.67-1,1.34-.24.33-.25.32-.5.63-1,1.26-.25.31-.25.3-.51.59-1,1.18-.25.29-.25.28-.51.55-1,1.1-.51.54-.51.52-1,1-.51.51-.51.49-1,1-.51.49-.5.47-1,.93-1,.91-1,.89-.25.22-.12.12-.06.06-.05.07,0,.07,0,.08,0,.08,0,.09-.12.36,0,.09,0,.08,0,.07,0,0,0,0,0,0,0,0,0,0,0,0,0,0h-.34l-.12,0-.13,0-.27-.07-.28-.08-1.12-.31-1.11-.33-2.25-.72-1.13-.38-1.13-.4-2.28-.84-2.32-.9-2.36-1-2.42-1-2.48-1.11Z"/></clipPath><clipPath id="clip-path-3" transform="translate(4.32 4.32)"><path class="cls-1" d="M136.82,350.16l-1.59-.25-1.57-.23-1.54-.2-1.52-.18-1.5-.16-1.48-.14-2.9-.23-2.83-.17-2.78-.11-2.73-.06-2.69,0-2.63,0h-.33l-.15,0-.14,0-.13,0-.12,0-.11,0-.1.06-.1.06-.09.07-.08.08-.07.09-.06.1-.05.1,0,.11,0,.12-.07.24-.08.23-.09.22-.1.21-.11.2-.06.1-.06.09-.07.09-.07.08-.08.08-.08.08-1.19,1.33-4.76,5.34-9.51,10.69L83.7,379.14,74.34,389.9l-9.28,10.73-9.28,10.73-4.64,5.36-2.32,2.68-1.16,1.34,0,0,0,0-.08.08-.09.07-.1.06-.1.06-.11.05-.22.1-.22.1-.11.06-.1.06-.1.06-.09.07-.08.08,0,0,0,0,6-2.76,6-2.8,5.94-2.83L70,410.53l11.79-5.78L93.42,399l11.74-5.74,5.87-2.84L114,389l1.47-.7.74-.35.09,0h0c-.23-.5,0-.15-.09-.26l0,0,.19-.09.37-.19,12-5.95,12.45-6h0l0,0-.06,0-.07,0-.17,0-.21,0h-.06l.5,1.06v-.49l0-.39,0-.4,0-.4,0-.38-.33-3.16-.4-3.23L140,366l-.25-1.67-.56-3.39-.31-1.73-.34-1.75-.37-1.78-.41-1.82-.45-1.85Z"/></clipPath><clipPath id="clip-path-4" transform="translate(4.32 4.32)"><path class="cls-1" d="M158.58,394.4,157,397.1l-1.57,2.59-1.58,2.49-1.59,2.4-1.6,2.32-1.61,2.25-1.62,2.19-1.62,2.14-1.63,2.08-.2.26-.21.25-.1.11-.1.1-.11.09-.05,0-.05,0-.05,0-.05,0-.05,0-.05,0h-.33l-.11,0-.11,0-.11,0-.46-.16-.23-.07-.11,0-.11,0h-.45l-.45,0-1.78.14-7.13.5-14.26,1-14.27.89-28.39,1.68-14.16.82-7.08.41-3.54.21-.89.05-.44,0-.44,0-.11,0L48,422l-.11,0-.11,0-.22.1-.22.11-.22.11-.22.1-.11,0-.11,0-.11,0h-.11l5.85-3.11,5.86-3.05,5.86-3,5.86-3,11.79-5.85L93.43,399l11.7-5.79,5.84-2.91,5.82-3,.73-.38c.27.56.09.15.15.27h0l0,0,.09,0L118,387l.37-.18,1.49-.72,3-1.45,6-2.95,12.29-6.12h0v.12l0,.07-.07.17-.11.2h0l-.5-1.05h0l0,0,.07.05.14.12.14.13.14.14,1.15,1.08,2.31,2.22,2.32,2.3,1.16,1.18,1.17,1.22,2.34,2.48,1.17,1.28,1.18,1.31,1.18,1.35,1.19,1.39,1.19,1.44Z"/></clipPath></defs><title>zippy-logo-opc</title><g class="cls-2"><rect class="cls-3" width="508.64" height="508.64"/></g><path class="cls-4" d="M94.13,112.41l.3-.89c.17-.26.39-.49.59-.73.41-.47.77-1,1.2-1.4l1.34-1.25A13.82,13.82,0,0,1,99,107a20.28,20.28,0,0,1,6.3-3,10.79,10.79,0,0,1,1.66-.42c.56-.1,1.11-.23,1.67-.31a26.43,26.43,0,0,1,3.37-.21,30.19,30.19,0,0,1,3.31.18,27,27,0,0,1,3.2.63,21.81,21.81,0,0,1,5.79,2.35l1.28.78,1.16.9a11.56,11.56,0,0,1,1.14,1c.37.36.77.65,1.1,1a27,27,0,0,1,3.7,4.73,32.66,32.66,0,0,1,2.63,5.4l4.73-2.69a37.29,37.29,0,0,0-3.74-5.85,31.33,31.33,0,0,0-4.88-4.94,24.9,24.9,0,0,0-5.9-3.6,25.37,25.37,0,0,0-6.76-1.88,30.11,30.11,0,0,0-3.55-.3,31.08,31.08,0,0,0-3.57.2,28.58,28.58,0,0,0-3.54.62c-.58.15-1.15.35-1.73.52a11.65,11.65,0,0,0-1.69.63,16.94,16.94,0,0,0-1.65.74l-1.59.88c-.52.31-1,.69-1.5,1-.25.18-.51.34-.74.54l-.68.61a17.74,17.74,0,0,0-4.49,5.8Z" transform="translate(4.32 4.32)"/><path class="cls-5" d="M94,112.36a17.74,17.74,0,0,1,4.49-5.8l.68-.61c.23-.19.5-.36.74-.54.5-.34,1-.72,1.5-1l1.59-.88a16.94,16.94,0,0,1,1.65-.74,11.65,11.65,0,0,1,1.69-.63c.58-.17,1.15-.37,1.73-.52a28.58,28.58,0,0,1,3.54-.62,31.08,31.08,0,0,1,3.57-.2,30.11,30.11,0,0,1,3.55.3,25.37,25.37,0,0,1,6.76,1.88,24.9,24.9,0,0,1,5.9,3.6,31.33,31.33,0,0,1,4.87,4.94,37.29,37.29,0,0,1,3.74,5.85l.82-.46a38.14,38.14,0,0,0-3.93-5.93,32.09,32.09,0,0,0-5.08-5,25.84,25.84,0,0,0-13-5.38,30.59,30.59,0,0,0-3.6-.24,31.2,31.2,0,0,0-3.61.27,28.93,28.93,0,0,0-3.57.69c-.58.16-1.15.37-1.73.56a11.82,11.82,0,0,0-1.7.67,17.13,17.13,0,0,0-1.65.78l-1.59.91c-.52.32-1,.71-1.49,1.06-.24.18-.5.35-.74.55l-.67.63a14.3,14.3,0,0,0-1.31,1.29L96,109.19c-.38.49-.68,1-1,1.54-.17.26-.34.52-.5.79l-.4.84Z" transform="translate(4.32 4.32)"/><path class="cls-6" d="M140.86,116.89l8.52-4.84a47.65,47.65,0,0,0-5.91-6.74,40.26,40.26,0,0,0-7.19-5.35c-.62-.4-1.31-.71-2-1a20.1,20.1,0,0,0-2-.94l-2.13-.82c-.72-.22-1.45-.41-2.17-.61a31.23,31.23,0,0,0-8.66-1,35,35,0,0,0-4.22.35,33.85,33.85,0,0,0-8,2.37c-.62.29-1.23.62-1.83.93a14,14,0,0,0-1.75,1,19.3,19.3,0,0,0-1.67,1.15l-1.55,1.27c-.5.44-.94,1-1.41,1.42-.23.24-.46.47-.67.72l-.6.79a15.18,15.18,0,0,0-1.13,1.59l-1,1.67c-.29.57-.5,1.18-.75,1.76-.12.29-.23.59-.36.86l-.55.76.16.08.4-.84c.16-.27.33-.52.5-.79.34-.51.65-1.06,1-1.54l1.19-1.42a14.3,14.3,0,0,1,1.31-1.29l.67-.63c.23-.2.49-.37.74-.55.5-.35,1-.74,1.49-1.06l1.59-.91a17.13,17.13,0,0,1,1.65-.78,11.82,11.82,0,0,1,1.7-.67c.58-.18,1.15-.39,1.73-.56a28.93,28.93,0,0,1,3.57-.69,31.2,31.2,0,0,1,3.61-.27,30.59,30.59,0,0,1,3.6.24,25.84,25.84,0,0,1,13,5.38,32.09,32.09,0,0,1,5.08,5A38.14,38.14,0,0,1,140.86,116.89Z" transform="translate(4.32 4.32)"/><path class="cls-4" d="M134.75,118.67a38.09,38.09,0,0,1,2.81,11.74,44.39,44.39,0,0,1,0,6,59.79,59.79,0,0,1-.77,6.05,79.07,79.07,0,0,1-3.47,12.29c-1.51,4.13-3.32,8.3-5.29,12.59l9.63,3.1c1.67-4.58,3.19-9.15,4.41-13.76a81.32,81.32,0,0,0,2.48-13.92,62.36,62.36,0,0,0,.15-7,51.49,51.49,0,0,0-.81-6.9,42.75,42.75,0,0,0-4.72-13Z" transform="translate(4.32 4.32)"/><path class="cls-5" d="M139.22,115.85a42.75,42.75,0,0,1,4.72,13,51.49,51.49,0,0,1,.81,6.9,62.35,62.35,0,0,1-.15,7,81.32,81.32,0,0,1-2.48,13.92c-1.21,4.61-2.74,9.18-4.41,13.76l1.66.53c1.62-4.63,3.09-9.27,4.26-14a82.19,82.19,0,0,0,2.32-14.2,63.32,63.32,0,0,0,0-7.14,52.68,52.68,0,0,0-.95-7.06,43.61,43.61,0,0,0-5-13.27Z" transform="translate(4.32 4.32)"/><path class="cls-6" d="M139.37,171l17.34,5.58c1.08-5.14,2-10.51,2.68-16.06.33-2.77.54-5.61.66-8.46s.06-5.77-.11-8.68a78.77,78.77,0,0,0-1.08-8.81,64.8,64.8,0,0,0-2.33-8.65A53.38,53.38,0,0,0,148,110.29l-8,5.08a43.61,43.61,0,0,1,5,13.27,52.68,52.68,0,0,1,.95,7.06,63.32,63.32,0,0,1,0,7.14,82.19,82.19,0,0,1-2.32,14.2C142.46,161.73,141,166.37,139.37,171Z" transform="translate(4.32 4.32)"/><path class="cls-4" d="M128.81,165.78c-1,2.14-2,4.28-3,6.48s-2.07,4.26-3.1,6.28a88.59,88.59,0,0,1-6.53,10.93c-.55.83-1.16,1.52-1.72,2.28s-1.17,1.37-1.74,2a29,29,0,0,1-3.49,3.21l-.84.65-.85.52a17.61,17.61,0,0,1-1.62.9c-.52.28-1,.44-1.5.73a7,7,0,0,0-.73.29l-.35.17s-.14.08-.14.07h0l6.05,12.7a13.59,13.59,0,0,0,1.27-.66l1.33-.71c.83-.58,1.72-1.06,2.53-1.68s1.67-1.2,2.43-1.92l1.18-1,1.12-1.14A51.88,51.88,0,0,0,127,195.16a111.24,111.24,0,0,0,6.14-12.74c1.83-4.43,3.58-9.09,5.22-13.65Z" transform="translate(4.32 4.32)"/><path class="cls-5" d="M138.32,168.77c-1.64,4.56-3.39,9.22-5.22,13.65A111.23,111.23,0,0,1,127,195.16a51.88,51.88,0,0,1-7.88,10.72L118,207l-1.18,1c-.76.73-1.62,1.29-2.43,1.92s-1.7,1.1-2.53,1.68l-1.33.71a13.58,13.58,0,0,1-1.27.66l1,2.19a35.77,35.77,0,0,0,10.51-7.81,54.34,54.34,0,0,0,8-11.27,114,114,0,0,0,6.08-13c1.79-4.51,3.48-9.18,5.07-13.8Z" transform="translate(4.32 4.32)"/><path class="cls-6" d="M110.26,215.21l10.9,22.87.82-.4c.28-.14.44-.25.67-.38l1.27-.74c.85-.5,1.68-1,2.51-1.55s1.57-1.15,2.34-1.73a26.23,26.23,0,0,0,2.23-1.83,50.08,50.08,0,0,0,4-3.94l1.85-2,1.66-2.1a73.33,73.33,0,0,0,9.73-17,125.47,125.47,0,0,0,5.38-16.31c.69-2.62,1.29-5.22,1.85-7.74s1.1-5.06,1.62-7.65L140,169.28c-1.59,4.62-3.28,9.29-5.07,13.8a114,114,0,0,1-6.08,13,54.34,54.34,0,0,1-8,11.27A35.77,35.77,0,0,1,110.26,215.21Z" transform="translate(4.32 4.32)"/><path class="cls-4" d="M103.67,200.1l-.3.15-.15.08s0,0,0,0,0,0-.08,0l-.32.13a5.65,5.65,0,0,1-1.36.38,6.87,6.87,0,0,1-2,0l-.58-.11h0l-12.86-6.38c-.25.36-.46.74-.7,1.12s-.39.79-.58,1.18a9.75,9.75,0,0,0-.46,1.23,8.08,8.08,0,0,0-.33,1.27,10.69,10.69,0,0,0,1.61,8.29,16,16,0,0,0,6.66,5.42,19.48,19.48,0,0,0,2,.79c.36.13.65.2,1.05.32s.82.19,1.23.29a22.4,22.4,0,0,0,5,.47,20.47,20.47,0,0,0,4.75-.64,18.2,18.2,0,0,0,2.17-.71c.36-.12.67-.3,1-.44s.75-.4,1.12-.59Z" transform="translate(4.32 4.32)"/><path class="cls-5" d="M110.47,212.36c-.37.19-.79.46-1.12.59s-.66.33-1,.44a18.19,18.19,0,0,1-2.17.71,20.47,20.47,0,0,1-4.75.64,22.4,22.4,0,0,1-5-.47c-.41-.1-.83-.17-1.23-.29s-.69-.18-1.05-.32a19.47,19.47,0,0,1-2-.79,16,16,0,0,1-6.65-5.41,10.68,10.68,0,0,1-1.61-8.29,8.08,8.08,0,0,1,.33-1.27,9.75,9.75,0,0,1,.46-1.23c.2-.39.35-.8.58-1.18s.45-.76.7-1.11l-2.22-1.1c-.29.42-.54.87-.82,1.31s-.45.92-.69,1.38a11.43,11.43,0,0,0-.54,1.44,9.47,9.47,0,0,0-.38,1.49,12.51,12.51,0,0,0,1.89,9.72A18.7,18.7,0,0,0,91,215a22.83,22.83,0,0,0,2.37.93c.41.15.78.24,1.23.37s.9.22,1.35.33a25.1,25.1,0,0,0,5.48.55,22.66,22.66,0,0,0,5.33-.68,20,20,0,0,0,2.49-.81,17.37,17.37,0,0,0,2.4-1.17Z" transform="translate(4.32 4.32)"/><path class="cls-6" d="M83.73,193.27l-22.37-11.1c-.64,1.09-1.2,2.22-1.77,3.35s-1,2.31-1.43,3.48l-.32.88-.24.9-.47,1.81c-.34,1.2-.58,2.43-.84,3.65l-.18,1.52c0,.51-.08,1-.11,1.53l-.1,1.53c0,.51,0,1,0,1.53l0,1.53.13,1.53a27.51,27.51,0,0,0,.44,3,36.52,36.52,0,0,0,4.26,11.46,42.8,42.8,0,0,0,18.32,16.73A50.5,50.5,0,0,0,85,239.12c.52.17,1,.36,1.54.52l1.49.44c.86.27,1.73.45,2.6.67a53.31,53.31,0,0,0,10.78,1.42A45,45,0,0,0,112.85,241a40.55,40.55,0,0,0,5.83-1.85c1-.37,1.92-.85,2.87-1.3.23-.11.5-.24.68-.35l.55-.32,1.11-.65-12.25-22.1a17.37,17.37,0,0,1-2.4,1.17,20,20,0,0,1-2.49.81,22.66,22.66,0,0,1-5.33.68,25.1,25.1,0,0,1-5.48-.55c-.45-.11-.91-.19-1.35-.33s-.82-.22-1.23-.37A22.83,22.83,0,0,1,91,215a18.7,18.7,0,0,1-7.8-6.35,12.51,12.51,0,0,1-1.89-9.72,9.47,9.47,0,0,1,.38-1.49,11.43,11.43,0,0,1,.54-1.44c.23-.46.41-.94.69-1.38S83.43,193.7,83.73,193.27Z" transform="translate(4.32 4.32)"/><path class="cls-4" d="M98.8,200.75l0,0c-.2.16.13-.14.43-.31l.89-.58a51.44,51.44,0,0,1,4.54-2.43l1.31-.61,1.39-.61,1.45-.61,1.6-.66q13.54-5.53,27.22-10.73l-4.87-12.8q-13.83,5.26-27.52,10.85a81.82,81.82,0,0,0-12.36,6l-1.34.88c-.45.28-.88.64-1.16.83a11.77,11.77,0,0,0-1,.76c-.32.27-.65.52-.94.82a15.7,15.7,0,0,0-3.15,3.86Z" transform="translate(4.32 4.32)"/><path class="cls-5" d="M85.29,195.42a15.69,15.69,0,0,1,3.14-3.86c.29-.3.62-.55.94-.82a11.77,11.77,0,0,1,1-.76c.27-.19.71-.55,1.16-.83l1.34-.88a81.81,81.81,0,0,1,12.36-6q13.7-5.59,27.52-10.85l-.84-2.21Q118,174.5,104.3,180.11a84,84,0,0,0-12.71,6.16l-1.41.93c-.48.3-.93.67-1.28.92s-.78.58-1.14.9-.76.61-1.11,1A18.4,18.4,0,0,0,83,194.5Z" transform="translate(4.32 4.32)"/><path class="cls-6" d="M131.88,169.23l-8.77-23.06Q109,151.55,95,157.27l-1.84.76-2,.83-2,.89-2.06,1a91.17,91.17,0,0,0-8.54,4.63l-2.22,1.45c-.75.49-1.38,1-2.59,1.85-.56.41-1,.79-1.5,1.19L70.82,171c-.93.81-1.85,1.63-2.7,2.52a41.91,41.91,0,0,0-8.43,11.77L83,194.5A18.4,18.4,0,0,1,86.65,190c.34-.35.73-.65,1.11-1s.76-.63,1.14-.9.81-.62,1.28-.92l1.41-.93a84,84,0,0,1,12.71-6.16Q118,174.5,131.88,169.23Z" transform="translate(4.32 4.32)"/><path class="cls-4" d="M135.91,184.88q27.33-10.44,55.14-19.57l-4.27-13q-28.11,9.22-55.76,19.79Z" transform="translate(4.32 4.32)"/><path class="cls-5" d="M131,172.09q27.64-10.56,55.76-19.79l-.74-2.24q-28.17,9.24-55.87,19.82Z" transform="translate(4.32 4.32)"/><path class="cls-6" d="M186,150.06l-7.69-23.44q-28.73,9.42-57,20.22l8.81,23Q157.86,159.3,186,150.06Z" transform="translate(4.32 4.32)"/><path class="cls-4" d="M189.33,165.88q27.79-9.16,56-17l-3.66-13.2Q213.15,143.6,185,152.87Z" transform="translate(4.32 4.32)"/><path class="cls-5" d="M185,152.88q28.1-9.26,56.62-17.18l-.63-2.28q-28.56,7.92-56.73,17.21Z" transform="translate(4.32 4.32)"/><path class="cls-6" d="M241,133.42l-6.6-23.77q-29.13,8.08-57.86,17.55l7.73,23.43Q212.46,141.35,241,133.42Z" transform="translate(4.32 4.32)"/><path class="cls-4" d="M243.59,149.38q28.18-7.86,56.72-14.37l-3-13.36q-28.85,6.58-57.35,14.53Z" transform="translate(4.32 4.32)"/><path class="cls-5" d="M239.91,136.19q28.5-8,57.35-14.53l-.53-2.3q-28.9,6.59-57.46,14.56Z" transform="translate(4.32 4.32)"/><path class="cls-6" d="M296.74,119.35,291.25,95.3q-29.48,6.72-58.61,14.85l6.63,23.76Q267.83,125.95,296.74,119.35Z" transform="translate(4.32 4.32)"/><path class="cls-4" d="M298.55,135.41q14.26-3.27,28.59-6.21l7.41-1.5c3-.63,5.43-1.26,7.45-1.7,1-.22,1.89-.4,2.64-.53a11.37,11.37,0,0,1,1.49-.18c1.08-.07,3,0,5.57.07l.46-13.69c-2.51-.09-4.8-.17-6.82-.05a25.37,25.37,0,0,0-3,.35c-1.07.18-2.17.41-3.32.66-2.29.51-4.71,1.12-7.31,1.67l-7.33,1.49q-14.49,3-28.91,6.28Z" transform="translate(4.32 4.32)"/><path class="cls-5" d="M295.48,122.06q14.42-3.31,28.91-6.28l7.33-1.49c2.6-.55,5-1.17,7.31-1.67,1.14-.25,2.25-.48,3.32-.66a25.37,25.37,0,0,1,3-.35c2-.12,4.31,0,6.82.05l.08-2.36c-2.5-.09-4.86-.18-7,0a42.26,42.26,0,0,0-6.66,1.06c-2.34.52-4.75,1.13-7.29,1.67l-7.31,1.48q-14.52,3-29,6.29Z" transform="translate(4.32 4.32)"/><path class="cls-6" d="M352.23,109.31,353,84.65c-2.37-.07-5.43-.23-9.3,0a53.43,53.43,0,0,0-5.89.68c-1.7.29-3.24.61-4.66.92-2.82.63-5.17,1.22-7,1.62L319,89.3q-14.81,3-29.55,6.41l5.52,24q14.45-3.32,29-6.29l7.31-1.48c2.54-.54,5-1.15,7.29-1.67a42.26,42.26,0,0,1,6.66-1.06C347.37,109.13,349.73,109.22,352.23,109.31Z" transform="translate(4.32 4.32)"/><path class="cls-4" d="M353.28,113.48l-10.5,8.94q-5.27,4.45-10.45,9l-10.41,9c-3.48,3-6.89,6.08-10.34,9.12l9.08,10.26c3.43-3,6.82-6.09,10.29-9.07l10.35-9q5.16-4.51,10.4-8.94l10.44-8.89Z" transform="translate(4.32 4.32)"/><path class="cls-5" d="M362.12,123.94l-10.44,8.89q-5.24,4.43-10.4,8.94l-10.35,9c-3.47,3-6.86,6-10.29,9.07l1.56,1.77c3.43-3,6.81-6.08,10.28-9.06l10.34-9q5.16-4.5,10.39-8.93l10.43-8.88Z" transform="translate(4.32 4.32)"/><path class="cls-6" d="M322.21,161.6l16.34,18.48c3.39-3,6.75-6,10.17-9L359,162.22q5.11-4.46,10.28-8.84l10.33-8.79-15.93-18.84-10.43,8.88Q348,139,342.83,143.56l-10.34,9C329,155.52,325.64,158.58,322.21,161.6Z" transform="translate(4.32 4.32)"/><polygon class="cls-4" points="317.16 152.76 306.84 161.9 296.6 171.13 286.37 180.38 276.23 189.73 285.53 199.79 295.61 190.5 305.78 181.3 315.97 172.12 326.23 163.03 317.16 152.76"/><polygon class="cls-5" points="326.23 163.03 315.96 172.12 305.77 181.3 295.61 190.5 285.52 199.79 287.13 201.52 297.2 192.24 307.36 183.05 317.54 173.88 327.79 164.8 326.23 163.03"/><polygon class="cls-6" points="287.13 201.52 303.86 219.65 313.84 210.46 323.89 201.36 333.97 192.28 344.12 183.29 327.79 164.8 317.54 173.88 307.36 183.05 297.2 192.24 287.13 201.52"/><path class="cls-4" d="M273.16,184.26c-3.37,3.12-6.78,6.21-10.12,9.36l-10,9.44c-3.35,3.15-6.7,6.29-10,9.48l-10,9.54,9.51,9.86,9.9-9.49c3.29-3.18,6.62-6.3,10-9.43l10-9.39c3.33-3.13,6.71-6.2,10.07-9.31Z" transform="translate(4.32 4.32)"/><path class="cls-5" d="M282.45,194.32c-3.35,3.11-6.74,6.18-10.07,9.31l-10,9.39c-3.33,3.13-6.67,6.25-10,9.43l-9.9,9.49,1.64,1.7,9.89-9.48c3.28-3.17,6.62-6.3,9.95-9.42l10-9.38c3.33-3.13,6.71-6.2,10.06-9.3Z" transform="translate(4.32 4.32)"/><path class="cls-6" d="M244.17,233.65l17.12,17.76,9.79-9.39c3.25-3.14,6.55-6.23,9.85-9.33l9.88-9.29c3.29-3.1,6.64-6.14,10-9.21L284,196.06c-3.35,3.1-6.73,6.17-10.06,9.3l-10,9.38c-3.33,3.12-6.66,6.25-9.95,9.42Z" transform="translate(4.32 4.32)"/><path class="cls-4" d="M234.26,220.91l-5,4.77-4.93,4.82-9.86,9.64c-3.3,3.2-6.53,6.47-9.79,9.71l-9.76,9.74,9.72,9.66,9.71-9.68c3.25-3.22,6.45-6.48,9.74-9.66l9.81-9.59,4.9-4.79,4.95-4.74Z" transform="translate(4.32 4.32)"/><path class="cls-5" d="M243.75,230.78l-4.95,4.74-4.9,4.79-9.81,9.59c-3.28,3.18-6.49,6.44-9.74,9.66l-9.71,9.68,1.68,1.66,9.7-9.67c3.24-3.22,6.45-6.47,9.73-9.65l9.8-9.58,4.9-4.79,4.94-4.74Z" transform="translate(4.32 4.32)"/><path class="cls-6" d="M206.32,270.9l17.5,17.39,9.61-9.58c3.21-3.18,6.38-6.41,9.63-9.55l9.7-9.48,4.85-4.74,4.9-4.69-17.11-17.77-4.94,4.74-4.9,4.79-9.8,9.58c-3.28,3.18-6.48,6.43-9.73,9.65Z" transform="translate(4.32 4.32)"/><path class="cls-4" d="M196.14,258.38c-3.26,3.24-6.45,6.54-9.68,9.81L176.79,278,167.22,288c-3.18,3.32-6.4,6.6-9.54,10l9.92,9.45c3.13-3.34,6.33-6.6,9.49-9.9l9.52-9.87,9.61-9.78c3.21-3.25,6.39-6.53,9.63-9.76Z" transform="translate(4.32 4.32)"/><path class="cls-5" d="M205.85,268c-3.24,3.23-6.42,6.51-9.63,9.76l-9.61,9.78-9.52,9.87c-3.16,3.3-6.37,6.56-9.49,9.9L169.3,309c3.12-3.33,6.32-6.59,9.48-9.89l9.51-9.86,9.6-9.77c3.21-3.25,6.39-6.53,9.62-9.75Z" transform="translate(4.32 4.32)"/><path class="cls-6" d="M169.3,309l17.87,17c3.09-3.3,6.26-6.53,9.39-9.79l9.41-9.76,9.51-9.67c3.18-3.22,6.32-6.46,9.53-9.65l-17.49-17.4c-3.23,3.22-6.41,6.5-9.62,9.75l-9.6,9.77-9.51,9.86C175.62,302.39,172.43,305.65,169.3,309Z" transform="translate(4.32 4.32)"/><path class="cls-4" d="M158.84,296.67c-6.3,6.69-12.67,13.32-18.91,20.07l-9.37,10.11c-3.14,3.36-6.22,6.76-9.31,10.17l10.12,9.23c3.07-3.38,6.14-6.77,9.26-10.11L150,326.09c6.21-6.71,12.54-13.3,18.81-20Z" transform="translate(4.32 4.32)"/><path class="cls-5" d="M168.75,306.12c-6.26,6.66-12.6,13.25-18.81,20l-9.32,10.06c-3.12,3.34-6.19,6.73-9.26,10.11l1.75,1.59c3.07-3.38,6.14-6.76,9.25-10.1l9.31-10c6.2-6.71,12.53-13.29,18.79-19.94Z" transform="translate(4.32 4.32)"/><path class="cls-6" d="M133.11,347.84l18.23,16.62c3-3.35,6.07-6.7,9.16-10l9.22-9.95c6.14-6.64,12.4-13.16,18.6-19.74l-17.86-17c-6.26,6.65-12.59,13.24-18.79,19.94l-9.31,10C139.24,341.08,136.18,344.46,133.11,347.84Z" transform="translate(4.32 4.32)"/><path class="cls-4" d="M159.27,414.77l14.83-1.27c4.94-.43,9.88-.85,14.82-1.33l14.81-1.41,14.8-1.52-1.42-13.63-14.73,1.51-14.74,1.4c-4.91.48-9.83.9-14.75,1.33l-14.75,1.27Z" transform="translate(4.32 4.32)"/><path class="cls-5" d="M158.15,401.12l14.75-1.27c4.92-.42,9.83-.85,14.75-1.33l14.74-1.4,14.73-1.51-.24-2.35-14.71,1.51-14.73,1.4c-4.91.48-9.82.9-14.73,1.33L158,398.77Z" transform="translate(4.32 4.32)"/><path class="cls-6" d="M216.87,393.27l-2.56-24.54-14.58,1.49-14.59,1.38c-4.86.48-9.73.9-14.6,1.31l-14.6,1.25,2,24.59,14.74-1.26c4.91-.42,9.83-.84,14.73-1.33l14.73-1.4Z" transform="translate(4.32 4.32)"/><path class="cls-4" d="M216.71,409.43c4.93-.52,9.87-1,14.8-1.56l14.79-1.65,7.39-.86c2.46-.28,4.94-.49,7.41-.68a112,112,0,0,0,14.78-1.74l-1.73-13.78c-4.88.77-9.79,1.26-14.7,1.78s-9.81,1.12-14.71,1.67L230,394.24c-4.9.56-9.81,1-14.72,1.56Z" transform="translate(4.32 4.32)"/><path class="cls-5" d="M215.3,395.81c4.91-.51,9.82-1,14.72-1.56l14.71-1.64c4.91-.54,9.8-1.18,14.71-1.67s9.82-1,14.7-1.78l-.3-2.38c-4.88.72-9.78,1.24-14.68,1.78l-14.7,1.69-14.7,1.64c-4.9.56-9.81,1-14.71,1.55Z" transform="translate(4.32 4.32)"/><path class="cls-6" d="M273.85,386.79,270.73,362a129.51,129.51,0,0,0-14.54,1.85c-4.82.83-9.67,1.4-14.53,1.93l-14.57,1.62c-4.85.56-9.72,1-14.58,1.54l2.54,24.54c4.9-.51,9.81-1,14.71-1.55l14.7-1.64,14.7-1.69C264.07,388,269,387.51,273.85,386.79Z" transform="translate(4.32 4.32)"/><path class="cls-4" d="M274.07,403.28c2.45-.43,4.88-1,7.3-1.57l7.28-1.72c4.85-1.13,9.69-2.35,14.53-3.55s9.68-2.38,14.5-3.64L332.14,389l-1.42-9.63-14.57,2.66c-4.85.9-9.72,1.7-14.59,2.55s-9.73,1.7-14.6,2.48-9.74,1.63-14.63,2.34Z" transform="translate(4.32 4.32)"/><path class="cls-5" d="M272.34,389.43c4.88-.71,9.75-1.56,14.63-2.34s9.74-1.65,14.6-2.48,9.73-1.65,14.59-2.55l14.57-2.66-.24-1.66-14.58,2.47c-4.86.83-9.73,1.57-14.6,2.36s-9.74,1.58-14.61,2.3-9.75,1.5-14.63,2.18Z" transform="translate(4.32 4.32)"/><path class="cls-6" d="M330.48,377.74l-2.55-17.34-14.77.45c-4.92.18-9.84.27-14.76.4s-9.83.3-14.75.37l-7.37.15c-2.46,0-4.91.1-7.35.3L272,387c4.88-.68,9.76-1.45,14.63-2.18s9.74-1.53,14.61-2.3,9.74-1.53,14.6-2.36Z" transform="translate(4.32 4.32)"/><path class="cls-4" d="M330.36,389.49c4.82-1.23,9.62-2.57,14.43-3.88s9.6-2.63,14.39-4l14.35-4.12c4.79-1.34,9.55-2.82,14.31-4.25l-.85-5c-4.82,1-9.65,2.07-14.48,3L358,374.16,343.47,377c-4.85.93-9.69,1.87-14.55,2.74Z" transform="translate(4.32 4.32)"/><path class="cls-5" d="M328.93,379.73c4.86-.87,9.7-1.81,14.55-2.74L358,374.17l14.51-2.93c4.84-1,9.66-2,14.48-3l-.15-.87c-4.83,1-9.67,1.93-14.51,2.81l-14.53,2.73-14.55,2.62c-4.85.86-9.7,1.74-14.57,2.55Z" transform="translate(4.32 4.32)"/><path class="cls-6" d="M386.85,367.34l-1.54-9.08-29.63,1.19-29.58,1L328.68,378c4.86-.8,9.71-1.68,14.57-2.55l14.55-2.62,14.53-2.73C377.18,369.27,382,368.29,386.85,367.34Z" transform="translate(4.32 4.32)"/><path class="cls-4" d="M386.08,373.78l14.28-4.32,14.23-4.52c4.74-1.48,9.46-3.06,14.18-4.64l7.07-2.38,3.53-1.2,1.76-.61.88-.3a8.77,8.77,0,0,1,.93-.05l0-.09c-.3,0-.61.08-.91.13l-.9.21-1.8.43-3.6.85-7.2,1.69c-4.8,1.13-9.6,2.25-14.41,3.3l-14.44,3.22-14.47,3.08Z" transform="translate(4.32 4.32)"/><path class="cls-5" d="M385.21,368.59l14.47-3.08,14.44-3.22c4.81-1.06,9.62-2.18,14.41-3.31l7.2-1.69,3.6-.85,1.8-.43.9-.21c.3-.06.61-.09.91-.13v0c-4.83,1-9.63,2.08-14.45,3.1s-9.63,2.09-14.45,3.08l-14.47,3-14.5,2.87Z" transform="translate(4.32 4.32)"/><path class="cls-6" d="M442.93,355.65l0-.16a8.55,8.55,0,0,1-.88.29l-.93,0-1.87.07-3.73.16-7.45.33-14.87.67-29.69,1.29,1.58,9.35,14.5-2.87,14.47-3c4.83-1,9.64-2,14.45-3.08S438.1,356.61,442.93,355.65Z" transform="translate(4.32 4.32)"/><g class="cls-7"><path class="cls-4" d="M350.48,108.15l1-3v0l0-.06v0h0v0l.08.21.16.41.32.82.65,1.57.67,1.52.69,1.47.35.72.37.71.76,1.4.81,1.35.21.33.21.33.44.65.45.64.23.32.24.31.49.61.5.61.13.15.06.07.06.07.23.3.24.29.25.29.27.29.13.14.14.14.29.28.15.14.16.14.32.27.34.26.17.13.18.13.37.25.19.12.2.12.41.24.44.23.22.11.23.11.47.21.24.1.25.1.51.19.54.17.27.08.29.08.29.07.29.06.15,0,.15,0H368l-7.51-17.44h0v0l0,0-.05.12,0,.05v.23l0,0,0,0h.34l.4-.05h.3l.16.16.15.16.3.33.58.67,2.34,2.68,9.37,10.72,9.37,10.72,2.34,2.68,1.17,1.34h.09v.14l0,.09,0,.1-.07.21-.07.21,0,.1,0,.09v.14h.19l.06,0,.07,0,.16-.06.18-.08.42-.21.45-.25,1.82-1,.92-.53.94-.57,1-.58.48-.29.49-.31,2-1.3,2-1.43.52-.37.26-.19.26-.2,1-.81,1.06-.82,1.07-.89,1.08-.91.54-.47.54-.5,1.09-1,.55-.52.27-.26.27-.28,2.24-2.35,2.22-2.6.28-.34.27-.36.55-.72,1.09-1.47.27-.37.27-.39.53-.8,1.06-1.64.27-.43.13-.22.13-.23.51-.92,1-1.85.25-.47.12-.24.12-.24.46-1,.9-2,.15-.38,0-.09,0,0h0v.05l0,.21-.15.63-.07.31-.05.24-.54,2.25-.07.27-.07.27-.15.52-.31,1-.65,2.1,1.08-2.56.26-.64.13-.32.06-.16.06-.17.47-1.34,0-1.52,0-.78V105h0v0l0,0,0,.07-.87,1.2-.87,1.18-.43.55-.43.53-.89,1-.88,1-.88.92-.22.22-.22.21-.44.4-.88.78-.87.75-.43.36-.22.18-.22.17-.88.64-.86.61-.85.58-.42.28-.21.13-.21.13-.2.11-.21.13-.44.26-.21.12-.19.09-.09,0-.08,0-.08,0h-.15l0,0,0,0,0,0,0,0,0-.06,0-.06,0-.13,0-.13,0-.06,0-.06,0,0,0,0,0,0,0,0h-.08l-1.5-1-3-1.93-12-7.71-3-1.93-1.5-1-.75-.48-.19-.12-.09-.06,0,0h0c.9,2.93.5,1.63.71,2.32H384l-.69.1-5.51.84-1.56.23-.87.1-.79.08-1.4.12-1.19.12-.5.07-.23,0-.2,0-.1,0-.08,0-.16,0-.11,0h-.11l.07,0,.08,0,.06,0,.05,0h0l-.23.2-1.12,1-.42.36-.49.38-.27.2-.29.2-.15.1-.16.1-.32.2-.68.42-.17.11-.18.11-.38.2-.37.18-.29.13-.15.06-.15,0-.15,0-.15,0-.15,0h-1.06l-.29,0-.28,0-.55-.09-.52-.11-.5-.13-.47-.14-.45-.15-.43-.16-.41-.17-.78-.36-.8-.38-.39-.2-.38-.2-.38-.21-.37-.21-.74-.44-.72-.46-.71-.48-.7-.49-.69-.51-.17-.12-.17-.13-.34-.28-.17-.14-.17-.12-.09-.05-.09,0-.09,0h0l0,0-.92,1Z" transform="translate(4.32 4.32)"/><path class="cls-5" d="M350.55,106l.92-1,0,0h0l.09,0,.09,0,.09.05.17.12.17.14.34.28.17.13.17.12.69.51.7.49.71.48.72.46.74.44.37.21.38.21.38.2.39.2.8.38.78.36.41.17.43.16.45.15.47.14.5.13.52.11.55.09.28,0,.29,0h1.06l.15,0,.15,0,.15,0,.15,0,.15-.06.29-.13.37-.18.38-.2.18-.11.17-.11.68-.42.32-.2.16-.1.15-.1.29-.2.27-.2.49-.38.42-.36,1.12-1,.23-.2h0l-.05,0-.06,0-.08,0-.07,0h.11l.11,0,.16,0,.08,0,.1,0,.2,0,.23,0,.5-.07,1.19-.12,1.4-.12.79-.08.87-.1,1.56-.23,5.51-.84.69-.1h.1l-.71-2.33h0l0,0,.09.06.19.12.75.48,1.5,1,3,1.93,12,7.71,3,1.93,1.5,1h.08l0,0,0,0,0,0,0,0,0,.06,0,.06,0,.13,0,.13,0,.06,0,.06,0,0,0,0,0,0,0,0H406l.08,0,.08,0,.09,0,.19-.09.21-.12.44-.26.21-.13.2-.11.21-.13.21-.13.42-.28.85-.59.87-.62.88-.65.22-.17.22-.18.43-.36.87-.75.88-.78.44-.4.22-.21.22-.22.88-.92.88-1,.89-1,.43-.53.43-.55.88-1.18.87-1.2,0-.07,0,0v0h0v.48l0,.78,0,1.52.32-.93,0-.11,0-.12,0-.26,0-.56,0-.26,0-.12,0-.11,0-.09,0,0,0,0,0,0,0,0,0,0,0,0-1.42,1.45-.7.66-.69.63-.34.3-.17.15-.18.14-.71.55-.69.51-.69.49-.68.47-.68.45-.17.11-.17.1-.34.2-.68.38-.68.36-.67.34-.16.07-.17.09-.34.18-.16.08-.16.06-.07,0-.07,0h-.18l0,0,0,0,0,0,0,0,0,0-.07-.1-.07-.1,0,0,0,0,0,0,0,0,0,0h-.05l-1.58-.83-3.15-1.65-12.61-6.62-3.15-1.65-.39-.21-.2-.1h0l.34,1h-.13l-.17,0-1.38.21-2.76.42-5.52.84-1.5.22-.81.09-.76.07-1.4.12-1.26.13-.57.08-.27,0-.25,0-.13,0-.11,0-.22,0-.19.05h-.09l-.08,0-.08,0h-.07l-.11,0h0l-.08.05-.11.09-.34.29-1.09,1-.37.31-.41.32-.23.16-.24.16-.12.08-.13.08-.26.16-.55.33-.14.08-.15.08-.3.16-.3.14-.25.1-.13,0-.13,0-.25.06-.26,0-.26,0h-1l-.48,0-.46-.05-.44-.07-.43-.08-.41-.09-.4-.09-.39-.1-.75-.22-.76-.23-.38-.12-.37-.13-.73-.27-.72-.28-.71-.3-.7-.31-.7-.32-.69-.34-.17-.08-.17-.09-.34-.19-.17-.09-.17-.08-.17-.07-.15-.05-.91.62Z" transform="translate(4.32 4.32)"/><path class="cls-6" d="M420.05,106.9l.4-1.21.28-.88.4-1.34.81-2.67L420.82,103l-.58,1.15-.07.12-.08.16-.16.32,0,.06,0,0h0v-.17l0-.13.54-4.84.45-4.54.4-4.38.64-8.25.26-3.94.22-3.8.1-1.86,0-.47v-.57l0,0-.1-.08,0,0,0,0,0,0H422l0,0-.08,0-.08.05-.08.06-.16.14-.16.14-.08.06-.08.05-.08,0,0,0h-.22l-2.77.4-5.54.8L390.4,76.82l-11.26,1.71-5.63.86-.7.11-.18,0h0l-.57.06-1.38.12-.93.09-1.08.12-1.28.17-.7.11-.78.14-.84.17-.9.2-1,.27-.53.15-.59.19-.58.2-.29.1-.34.13-.67.27-.67.28-.87.41-.88.45-.79.45-.76.46-.66.44-.64.44-.54.4-.52.4-.83.68-.62.55-.72.65-.11.1h0l0,0,.21-.18.38-.3.26-.19.3-.21.34-.23.38-.24.19-.13.21-.16.43-.33.45-.34.25-.18.25-.17.48-.29.11-.08.06,0,.06,0,.06,0,.06,0,.06,0h.37l.06,0,.06,0,.06,0,.13.07.07,0,.06,0,.12.1.12.11.12.12.1.12.2.25,0,.06,0,.06.08.13.08.13,0,.07,0,.07.13.27,0,.07,0,.07,0,.14.09.28.06.28,0,.14v.15l0,.29v.6l0,.3,0,.15v.15l-.06.31,0,.15,0,.16-.08.31-.1.31-.05.16-.06.16-.12.32,0,.08,0,.08,0,.16-.4,1.28-.11.33-.12.32-.25.65-.26.66-.28.66-.59,1.35-.64,1.38-.68,1.4L352.94,102l-.75,1.52-.38.79-.19.4-.09.21v0h0v-.13l-.8-3.08-.12,3.88.91-.62.15.05.17.07.17.08.17.09.34.19.17.09.17.08.69.34.7.32.7.31.71.3.72.28.73.27.37.13.38.12.76.23.75.22.39.1.4.09.41.09.43.08.44.07.46.05.48,0h1l.26,0,.26,0,.25-.06.13,0,.13,0,.25-.1.3-.14.3-.16.15-.08.14-.08.55-.33.26-.16.13-.08.12-.08.24-.16.23-.16.41-.32.37-.31,1.09-1,.34-.29.11-.09.08-.05h0l.11,0h.07l.08,0,.08,0h.09l.19-.05.22,0,.11,0,.13,0,.25,0,.27,0,.57-.08,1.26-.13,1.4-.12.76-.07.81-.09,1.5-.22,5.52-.84,2.76-.42,1.38-.21.17,0h.13l-.34-1h0l.2.1.39.21,3.15,1.65,12.61,6.62,3.15,1.65,1.58.83h.05l0,0,0,0,0,0,0,0,0,0,.07.1.07.1,0,0,0,0,0,0,0,0,0,0h.18l.07,0,.07,0,.16-.06.16-.08.34-.18.17-.09.16-.07.67-.34.68-.36.68-.38.34-.2.17-.1.17-.11.68-.45.68-.47.69-.49.69-.51.71-.55.18-.14.17-.15.34-.3.69-.63.7-.66,1.42-1.45,0,0,0,0,0,0,0,0,0,0,0,0,0,.09,0,.11,0,.12,0,.26,0,.56,0,.26,0,.12Z" transform="translate(4.32 4.32)"/></g><g class="cls-8"><path class="cls-4" d="M384.21,69.49l5,.14h.19l-.32.11-.63.21-1.25.42-2.39.81-4.55,1.59-4.31,1.56-2.07.77-1,.38-.5.19-.25.09-.06,0h0l.06,0,.12,0h0V76h0l0,0,0,0-.08.06h0l0,0-.08,0-.15.07-.2.07-.21.07-.12,0-.13,0-.55.16-1.35.35-1.7.43-1,.26-1.11.31-1.25.38-.67.22-.73.25-.76.28-.84.33-.86.36-1,.44-1,.52-.63.34-.62.35-.57.35-.54.35-.53.36-.47.34-.88.67-.38.31-.35.3-.35.3-.29.27-.53.51-.22.22-.19.21-.19.21-.09.1-.06.08-.25.31-.06.08,0,.05-.07.1-.07.1,0,0h0l0,.09v0H351l.2-.1.1,0,.15-.08.73-.4.46-.24.27-.14.28-.13.61-.28.33-.14.33-.13.36-.14.37-.13.37-.12.19-.05.09,0,.32-.06.28,0,.24,0h.41l.05,0,0,0,0,0,0,0,0,0v.17l0,.07-.06.07-.07.07-.33.33-.08.08-.06.08,0,0,0,0v.07l0,.22.06.21.14.42.29.84,1.14,3.37,4.57,13.49,4.57,13.49,1.14,3.37.57,1.69h.12V123l0,0-.06,0-.07.05-.18.12-.22.13-.51.27-.5.26-.21.11-.17.1-.07,0-.05,0,0,0v0h.48l.19,0,.46-.07.13,0h0l-7.69-17.3h0V107l.05.3.07.32.27,1.29,1.09,5.38,1.2,5.71.7,3,.77,3.08.9,3.23,0,.08,0,.06v0h0l0,0,0,0-.19-.14-.09-.07-.08,0-.69-.47-1.34-.9,1.27,1.5.67.1.34.06h.08l.09,0h.08v-.09l.42-1.67.47-1.62.49-1.59.52-1.56.53-1.53.53-1.51.54-1.48.07-.18.07-.18.13-.37.07-.18.08-.17,0-.08,0-.08,0-.07.05-.07.06-.06L370,117l.07-.05.07,0,.15-.09.15-.08.15-.08.15-.09.07,0,.07-.05.06-.06.06-.06,1-.89,1-.9,1-.9.95-.91.94-.91.9-.92.45-.46.22-.23.22-.23.86-.94.22-.23.21-.24.41-.48.82-1,.77-1,.38-.48.19-.24.18-.25.71-1,.36-.49.32-.5.16-.25.08-.13,0-.06h0l.72,2.32h0v0l-.07-.44-.14-.88-.27-1.76L383,98.49l-2.16-14.08-.54-3.52-.28-1.76,0-.05,0-.05,0-.05,0-.05-.15-.2-.07-.1,0-.05,0-.05v-.23l0-.06,0-.06,0-.06,0-.06.11-.13.13-.13.27-.27.13-.13.12-.13,1.08-1.07,1.14-1.07L384,74l1.25-1.09,1.32-1.1,1.4-1.11.17-.14.19-.14.4-.29.19-.14.17-.14.07-.07.07-.07.06-.06,0-.06L387.64,69Z" transform="translate(4.32 4.32)"/><path class="cls-5" d="M387.64,69l1.72.64,0,.06-.06.06-.07.07-.07.07-.17.14-.19.14-.4.29-.19.14-.17.14-1.41,1.11-1.32,1.1L384,74l-1.19,1.08-1.14,1.07-1.08,1.07-.12.13-.13.13-.27.27-.13.13-.11.13,0,.06,0,.06,0,.06,0,.06v.23l0,.05,0,.05.07.1.15.2,0,.05,0,.05,0,.05,0,.05.28,1.76.54,3.52L383,98.49l.54,3.52.27,1.76.14.88.07.44v0h0l-.72-2.32h0l0,.06-.08.13-.16.25-.32.5-.36.49-.71,1-.18.25-.19.24-.38.48-.77,1-.82,1-.41.48-.21.24-.22.23-.86.94-.22.23-.22.23-.45.46-.9.92-.94.91-.95.91-1,.9-1,.9-1,.89-.06.06-.06.06-.07.05-.07,0-.15.09-.15.08-.15.08-.15.09-.07,0L370,117l-.06.06-.06.06-.05.07,0,.07,0,.08,0,.08-.08.17-.07.18-.13.37-.07.18-.07.18-.54,1.48-.53,1.51-.53,1.53-.52,1.56-.49,1.59-.47,1.62-.42,1.67v.09h-.08l-.09,0h-.08l-.34-.06-.67-.1.22.26.13,0h.56l.13,0h.06l.06,0h.06l.07-.05.65-1.4.68-1.37.69-1.35,1.43-2.64,1.45-2.57.18-.32.18-.32.09-.16.1-.15.1-.14.11-.13.13-.12.14-.11.29-.19.15-.09.14-.1.13-.11.12-.12,1-.91,1-.91,1-.92,1-.93,1-.93.93-.95.47-.47.23-.24.22-.24.89-1,.22-.24.22-.25.43-.5.85-1,.81-1,.4-.51.2-.25.19-.26.75-1,.37-.52.34-.53.69-1.06.09-.13.08-.14L386,103l.31-.54.31-.54.16-.27.08-.14.07-.14,0-.07,0,0h0l.35,1h0l0-.11,0-.22-.07-.44-.53-3.52-2.12-14.08-.53-3.52-.27-1.76v-.05l0-.05,0-.11-.11-.21,0-.1,0-.05,0-.05v-.22l0-.06,0-.06.05-.12.07-.12.08-.12.17-.25.15-.25.65-1,.69-1,.73-1,.76-1,.81-1,.86-1,.1-.13.12-.13.25-.26.12-.13.1-.13,0-.06,0-.06,0-.06,0-.06-1.15-.72Z" transform="translate(4.32 4.32)"/><path class="cls-6" d="M364.72,129.67l2.29,2.71-.66-1.47-.35-.76,0-.08-.05-.1-.1-.21,0,0v0h.08l.05,0,.07.05,3,1.42,2.9,1.27,2.83,1.19,1.38.55,1.38.53,2.72,1,1.35.47,1.34.45,1.33.42,1.32.4,1.33.37.33.09.16,0,.16,0,.15,0h.3l0,0,0,0,0,0,0,0,0,0,0,0,0,0,.05-.09,0-.09,0-.1.07-.21.07-.21,0-.1,0-.1.05-.09,0,0,0,0,0,0,0,0,0,0,0,0,1.18-1.05,1.19-1.08,1.19-1.11,1.21-1.16,1.21-1.17,1.21-1.23.61-.62.61-.65,1.21-1.31.3-.33.3-.34.6-.7,1.2-1.4,1.19-1.48.59-.75.29-.37.29-.39,1.15-1.59.57-.8.56-.85,1.1-1.71.14-.21.13-.22.26-.45.52-.91.52-.91.26-.46.13-.23.12-.24,1-1.92.47-1,.44-1,.85-2,.21-.51.19-.53.37-1.06.69-2.07,6.5-21.44L421,76l.4-1.34.21-.67.22-.66,0,0,0,0,.06-.07.07-.07.07-.07.32-.27.08-.07.07-.07.06-.07,0,0,0,0,0,0,0,0v-.33l0-.05,0-.05,0-.05,0,0h0l-.09,0-.19,0-.9-.09-1.84-.18-3.78-.35-3.94-.33-4.1-.3-4.28-.28L399,70l-4.72-.21-2.47-.09-1.29,0-.65,0h-.32l.1,0h.07L394.31,68l-6.07.89,1.15.72,0,.06,0,.06,0,.06,0,.06-.1.13-.12.13-.25.26-.12.13-.1.13-.86,1-.81,1-.76,1-.73,1-.69,1-.65,1-.15.25-.17.25-.08.12-.07.12-.05.12,0,.06,0,.06v.22l0,.05,0,.05,0,.1.11.21,0,.11,0,.05v.05l.27,1.76.53,3.52,2.12,14.08.53,3.52.07.44,0,.22,0,.11h0l-.35-1h0l0,0,0,.07-.07.14-.08.14-.16.27-.31.54L386,103l-.16.27-.08.14-.09.13-.69,1.06-.34.53-.37.52-.75,1-.19.26-.2.25-.4.51-.81,1-.85,1-.43.5-.22.25-.22.24-.89,1-.22.24-.23.24-.47.47-.93.95-1,.93-1,.93-1,.92-1,.91-1,.91-.12.12-.13.11-.14.1-.15.09-.29.19-.14.11-.13.12-.11.13-.1.14-.1.15-.09.16-.18.32-.18.32-1.45,2.57-1.43,2.64-.69,1.35-.68,1.37-.65,1.4-.07.05h-.06l-.06,0h-.06l-.13,0h-.56Z" transform="translate(4.32 4.32)"/></g><g class="cls-9"><path class="cls-4" d="M135.08,347.31l1.65,2.71v0l0,0,0,.05v0h0l-.24,0L136,350l-.95-.15-1.85-.26-1.82-.23-1.78-.2-3.49-.32-3.4-.23-3.32-.15-3.24-.07H113l-1.56,0h-.39l-.38,0-.18,0-.17,0-.08,0-.07,0-.07,0-.07,0-.06,0-.06,0-.06,0-.05,0,0,0,0,0,0,.05,0,.05-.07.12-.06.12-.05.13,0,.13-.18.55-.05.13-.06.13-.06.12-.07.11-.69.8-.7.79-1.41,1.58L100.53,360l-5.65,6.34-5.6,6.39L78.11,385.54,56.06,411l-5.51,6.37-2.76,3.19,0,.06,0,.05,0,.05,0,0,0,0-.05,0-.11.08-.12.07-.12.07-.26.13-.26.13-.12.07-.12.07-.11.08-.05,0,0,0,0,0,0,.05,0,.05,0,.06,0,.06,0,.07,0,.07v.28H46l.14,0,.63.08.69.07,2.74.29,5.6.57,5.82.55L73.89,425l13.3,1,7.24.47h.41l-.17,0-.53.09-.26,0-.2,0-1.89.33-3.64.66,4.66-.27L94,427l.61-.26,0,0,0,0,.08,0,.17-.07,0,0,0,0h-.14l-2.4-.75L90.17,425,88,424.19l-2.07-.77-2-.78L82,421.87l-1.87-.78-.21-.1-.23-.1-.48-.2-.22-.1-.2-.1-.08-.05-.07-.05-.06-.05,0,0,0,0v-.17l0-.06,0-.06,0-.06.08-.12.08-.12,0-.06,0-.06,0-.06v-.17l-.1-1.78L78.5,414l-.41-7.11v-.39h0l0,0,0,0,.69-.8,1.38-1.59L83,400.88l5.51-6.37,11.12-12.72,5.57-6.35,5.62-6.31,5.62-6.31,2.81-3.16.16-.21.15-.22.29-.45.15-.22.16-.21.09-.1.09-.1.09-.09.1-.09.22-.16.23-.15.24-.14.25-.13.5-.26.49-.27,2-1,2-1,2-1,2.06-1,2.1-.94,2.13-.91.26-.12.27-.11.55-.21.27-.11.26-.12.25-.13.12-.07h.07l-.14-1.33Z" transform="translate(4.32 4.32)"/><path class="cls-5" d="M136.67,348.76l.14,1.33h-.07l-.12.07-.25.13-.26.12-.27.11-.55.21-.27.11-.26.12-2.13.91-2.1.94-2.06,1-2,1-2,1-2,1-.49.27-.5.26-.25.13-.24.14-.23.15-.22.16-.1.09-.09.09-.09.1-.09.1-.16.21-.15.22-.29.45-.15.22-.16.21-2.81,3.16-5.62,6.31-5.62,6.31-5.57,6.35L88.47,394.5,83,400.88l-2.76,3.19-1.38,1.59-.69.8,0,0,0,0h0v.39l.41,7.11.21,3.55.1,1.78v.17l0,.06,0,.06,0,.06-.08.12-.08.12,0,.06,0,.06,0,.06v.17l0,0,0,0,.06.05.07.05.08.05.2.1.22.1.48.2.23.1.21.1,1.87.78,1.94.78,2,.78,2.07.77,2.17.77,2.25.76,2.4.75H95l0,0,0,0-.17.07-.08,0,0,0,0,0L94,427l-1.17.51.8,0,.08-.06.09-.06.19-.12.42-.25.19-.12.09-.06.08-.06.06-.06.05-.06,0,0,0,0v-.06l-1.57-.8-1.47-.81-1.42-.81-1.35-.81-1.32-.82-1.27-.82-1.23-.82-.14-.1-.15-.1-.32-.2-.15-.1-.13-.1-.06-.05,0-.05,0-.05,0-.05v-.22l0-.06,0-.06,0-.11,0-.11,0-.06,0-.06v-.22l-.1-1.78-.21-3.55-.41-7.11-.1-1.78-.05-.89v-.08h0l0,0,.17-.2.34-.4.69-.8,5.51-6.37,11.1-12.71,5.56-6.35,5.61-6.3,5.61-6.3,2.8-3.15.17-.2.16-.21.31-.43.16-.21.17-.21.18-.2.19-.19.2-.17.21-.16.44-.31.89-.62,1.79-1.23,1.8-1.21,1.82-1.2,1.84-1.18,1.86-1.16,1.88-1.14.23-.14.24-.14.48-.27.24-.14.23-.14.22-.15.11-.08,0,0h0l.12-1.09Z" transform="translate(4.32 4.32)"/><path class="cls-6" d="M93.6,427.43l8.46-.52-3.73-.21-1.94-.1-.2,0h-.27l-.54,0-.18,0h0l.08,0,.34,0,7.2-1.34,13.21-2.6,6.15-1.32,6-1.31,5.75-1.3,5.53-1.29,2.7-.66.68-.17.62-.16.26-.08.22-.07.09,0,.07,0,.06,0,0,0,0,0v0h0l0,0,0,0,0,0-.1,0-.12,0-.27-.09-.28-.09-.12,0-.1,0,0,0,0,0,0,0h0v0l-.13-1.78-.27-3.55-1.08-14.2-1.08-14.2-.27-3.55,0-.44,0-.44,0-.44v-.45l0,0,0,0,0,0,0,0,.1-.06.12-.06.53-.26.12-.07.1-.06,0,0,0,0,0,0,0,0h0l0,0-.05,0-.07,0-.07,0-.08,0-.2,0h-.1l.5,1.06h0v-.26l0-.37,0-.39-.15-1.54-.34-3.12-.41-3.19L139.7,364l-.56-3.34-.66-3.44-.37-1.75-.4-1.79-.44-1.82-.24-.93-.13-.47-.07-.24v0h0l.06,0h0l2.85,1.4L136.95,349l-.12,1.09h0l0,0-.11.08-.22.15-.23.14-.24.14-.48.27-.24.14-.23.14-1.88,1.14-1.86,1.16-1.84,1.18-1.82,1.2-1.8,1.21L124,358.33l-.89.62-.44.31-.21.16-.2.17-.19.19-.18.2-.17.21-.16.21-.31.43-.16.21-.17.2-2.8,3.15-5.61,6.3-5.61,6.3-5.56,6.35-11.1,12.71-5.51,6.37-.69.8-.34.4-.17.2,0,0h0v.08l.05.89.1,1.78.41,7.11.21,3.55.1,1.78v.22l0,.06,0,.06,0,.11,0,.11,0,.06,0,.06V420l0,.05,0,.05,0,.05.06.05.13.1.15.1.32.2.15.1.14.1,1.23.82,1.27.82,1.32.82,1.35.81,1.42.81,1.47.81,1.57.8v.06l0,0,0,0-.05.06-.06.06-.08.06-.09.06-.19.12-.42.25-.19.12-.09.06Z" transform="translate(4.32 4.32)"/></g><g class="cls-10"><path class="cls-4" d="M66.87,386l5.39-4.87,0,0,0,0,.11-.1,0,0h0l0,.05-.28.41-.55.81-1.08,1.59-2.06,3.06-3.89,5.86L61,398.31l-3.45,5.35-3.28,5.15-3.12,5-3,4.78-1.43,2.34L46,422l-.14.25-.06.11h0l0,0,.07,0,.07,0,.07,0,.07,0,.07,0,.07,0h.4l.13,0,.13,0,.13-.05.13-.06.51-.26.13-.06.13-.05.13,0,.13,0,1.05-.08,1.05-.06,2.1-.12,8.41-.49,33.64-1.95,16.94-1.05,8.47-.55,8.47-.59,8.47-.59,4.23-.32.07,0h.33l.13,0,.14,0,.14,0,.27.09.27.09.14,0,.14,0,.13,0h.33l.07,0,.06,0,.06,0,.06,0,.06,0,.06,0,.06-.05.12-.12.12-.14.12-.15.24-.31,1-1.23,1.93-2.51,1.92-2.6,1.91-2.69,1.9-2.76,1.89-2.9.94-1.48.93-1.52,1.85-3.2,0-.09v-.08l0,0h.08l0,0,0,0,.07.22,0,.11,0,.08.29.79.57,1.51-.16-2-.49-.47-.24-.25h0l0,0-.06-.07h-.14l0,0,0,0-2,1.16-2,1.09-2,1.06-2,1-2,1-2,1-2,.93-.26.11-.26.12-.51.24-.26.11-.26.1-.26.08-.13,0-.13,0-.13,0h-.4l-.53,0-.53,0h-.4l-.13,0-4.21.31-8.42.59L119,404l-8.43.55-16.86,1-8.41.49-4.21.24-2.1.12-.53,0-.26,0h-.11l0,0-.34-.29-5.39-4.66-2.69-2.33-1.36-1.15h-.05l-.06,0h-.55l-.06,0h-.08l0,0,0,0,0,0,0,0v-.46l0-.22.06-.24.13-.49.06-.24.05-.23.52-2,.57-2,.62-2.08.68-2.14.75-2.22.82-2.31.1-.28.12-.3.25-.63.12-.3.1-.28,0-.13,0-.12,0-.11V381l-2.22,1.2Z" transform="translate(4.32 4.32)"/><path class="cls-5" d="M70.21,382.18l2.22-1.2v.1l0,.11,0,.12,0,.13-.1.28-.12.3-.25.63-.12.3-.1.28-.82,2.31-.75,2.22-.68,2.14L68.79,392l-.57,2-.52,2-.05.23-.06.24-.13.49-.06.24,0,.22,0,.1v.36l0,0,0,0,0,0,0,0h.08l.06,0h.55l.06,0h.05l1.36,1.15,2.69,2.33,5.39,4.66.34.29,0,0h.12l.26,0,.53,0,2.1-.12,4.21-.24,8.41-.49,16.86-1L119,404l8.42-.59,8.42-.59,4.21-.31.13,0h.4l.53,0,.53,0h.4l.13,0,.13,0,.13,0,.26-.08.26-.1.26-.11.51-.24.26-.12.26-.11,2-.93,2-1,2-1,2-1,2-1.06,2-1.09,2-1.16,0,0,0,0h.14l.06.07,0,0h0l.24.25.49.47,0-.34-.12-.06-.12-.07-.24-.16-.12-.07-.12-.06-.06,0-.06,0h-.21l-2,.81-2.05.77-2.05.74-4.12,1.41L144,399.53l-.52.16-.52.17-.52.15-.26.06-.26,0-.26,0H140.1l-.26,0-4.21.31-8.42.59-8.42.59-8.42.55-16.84,1-8.41.49-1.05.06-.53,0h-.06l0,0,0,0-.08-.07-.67-.58L81.33,402l-5.39-4.66L73.25,395l-1.35-1.16,0,0-.05,0-.06,0-.06,0-.24-.06-.12,0-.05,0-.05,0,0,0,0,0,0,0,0,0v-.05l0-.06v-.57l0-.37v-.36l.1-1.47.13-1.51.16-1.55.2-1.59.24-1.64.29-1.7,0-.21,0-.22.1-.46,0-.22,0-.21v-.34l-1.67.57Z" transform="translate(4.32 4.32)"/><path class="cls-6" d="M159.44,394.95l-.29-3.54-.32,1.58-.16.82,0,.09,0,.11,0,.23v.08h-.1l0,0,0,0,0,0,0-.08L156,391.3l-1.17-1.35-1.16-1.32-2.31-2.57-2.3-2.43-2.29-2.36L144.54,379l-2.27-2.18-1.13-1.07-.28-.27-.14-.13-.14-.12-.07-.05h0l.5,1.05h0l0-.05.1-.2,0-.08,0-.07,0-.06v-.11H141l-.11,0-.12,0-.26.12-.26.12-.12,0-.11,0h-.21v-.05l-1.32-1.19-2.65-2.38-10.59-9.53-10.59-9.53L112,350.9l-.33-.3-.34-.29L111,350l-.15-.16-.15-.17v-.17l0-.11,0-.13.21-.56,0-.13,0-.12v-.2h-.16l-.06,0-.06,0-.07,0-.08,0-.18.11-.21.15-.23.17-1,.84-2.15,1.74-4.39,3.59-4.56,3.77-4.73,4-2.43,2.06-2.45,2.13-5.07,4.45L77.93,376l-2.77,2.5-1.44,1.31-.73.66-.37.34,0,0h0v0l0,0,.09-.12,0-.05,0,0,4.13-6.08-6.1,7,1.67-.57v.34l0,.21,0,.22-.1.46,0,.22,0,.21-.29,1.7-.24,1.64-.2,1.59-.16,1.55-.13,1.51-.1,1.47v.36l0,.37v.57l0,.06v.05l0,0,0,0,0,0,0,0,.05,0,.05,0,.12,0,.24.06.06,0,.06,0,.05,0,0,0L73.25,395l2.69,2.33L81.33,402l1.35,1.16.67.58.08.07,0,0,0,0h.06l.53,0,1.05-.06,8.41-.49,16.84-1,8.42-.55,8.42-.59,8.42-.59,4.21-.31.26,0h1.59l.26,0,.26,0,.26-.06.52-.15.52-.17.52-.16,4.13-1.34,4.12-1.41,2.05-.74,2.05-.77,2-.81h.21l.06,0,.06,0,.12.06.12.07.24.16.12.07Z" transform="translate(4.32 4.32)"/></g><rect class="cls-4" x="85.33" y="343.75" width="66.17" height="13.7" transform="translate(-216.82 207.79) rotate(-47.91)"/><rect class="cls-5" x="91.28" y="354.8" width="66.17" height="2.36" transform="translate(-218.85 213.98) rotate(-47.91)"/><rect class="cls-6" x="101.31" y="352.71" width="66.17" height="24.67" transform="translate(-222.27 224.41) rotate(-47.91)"/><rect class="cls-4" x="111.71" y="402.24" width="54.8" height="13.7" transform="translate(-29.67 17.5) rotate(-4.83)"/><rect class="cls-5" x="111.04" y="399.91" width="54.8" height="2.36" transform="translate(-28.99 17.41) rotate(-4.83)"/><rect class="cls-6" x="109.9" y="375.29" width="54.8" height="24.67" transform="translate(-27.86 17.27) rotate(-4.83)"/><rect class="cls-4" x="164.64" y="397.76" width="54.8" height="13.7" transform="translate(-29.1 21.94) rotate(-4.83)"/><rect class="cls-5" x="163.96" y="395.43" width="54.8" height="2.36" transform="translate(-28.43 21.86) rotate(-4.83)"/><rect class="cls-6" x="162.83" y="370.81" width="54.8" height="24.67" transform="translate(-27.3 21.71) rotate(-4.83)"/><rect class="cls-4" x="307.18" y="123.36" width="74.15" height="13.7" transform="translate(3.26 261.91) rotate(-40.97)"/><rect class="cls-5" x="312.44" y="135.09" width="74.15" height="2.36" transform="translate(0.58 266.84) rotate(-40.97)"/><rect class="cls-6" x="321.3" y="134.14" width="74.15" height="24.67" transform="translate(-3.95 275.15) rotate(-40.97)"/><rect class="cls-4" x="312.89" y="111.62" width="72.23" height="13.7" transform="translate(-11.38 69.6) rotate(-10.45)"/><rect class="cls-5" x="311.43" y="109.4" width="72.23" height="2.36" transform="translate(-9.98 69.21) rotate(-10.45)"/><rect class="cls-6" x="308.98" y="84.95" width="72.23" height="24.67" transform="translate(-7.6 68.54) rotate(-10.45)"/><rect class="cls-4" x="304.99" y="119.36" width="85.45" height="13.7" transform="translate(9.19 269.44) rotate(-42.01)"/><rect class="cls-5" x="310.36" y="131" width="85.45" height="2.36" transform="translate(6.58 274.57) rotate(-42.01)"/><rect class="cls-6" x="319.4" y="129.88" width="85.45" height="24.67" transform="translate(2.19 283.2) rotate(-42.01)"/></svg>